M48
;DRILL file {KiCad 4.0.0-stable} date 2015 December 06, Sunday 20:59:38
;FORMAT={-:-/ absolute / inch / decimal}
FMAT,2
INCH,TZ
T1C0.016
T2C0.035
T3C0.039
T4C0.040
T5C0.118
T6C0.128
%
G90
G05
M72
T1
X5.315Y-3.878
X5.4528Y-4.7638
X5.4921Y-4.2717
X5.4921Y-4.5472
X5.5512Y-3.6417
X5.5906Y-4.6654
X5.5906Y-4.9606
X5.8465Y-3.7598
X5.8583Y-5.0108
X5.9843Y-3.7402
X6.0039Y-4.685
X6.1417Y-4.7638
X6.2402Y-4.252
X6.3289Y-4.6391
X6.3934Y-4.855
X6.4764Y-3.8583
T2
X5.25Y-4.2935
X5.25Y-4.3935
X5.25Y-4.4935
X5.25Y-4.5935
X5.35Y-4.3435
X5.35Y-4.4435
X5.35Y-4.5435
X5.35Y-4.6435
T3
X5.7866Y-4.3228
X5.8866Y-4.3228
X5.9866Y-4.3228
X6.0866Y-4.3228
T4
X5.3346Y-3.6402
X5.3346Y-3.7402
X5.3346Y-4.8622
X5.9843Y-3.9055
X5.9843Y-4.0055
X6.4803Y-4.2362
X6.4803Y-4.3937
X6.4803Y-4.4937
X6.4803Y-4.5937
X6.4803Y-4.6937
X6.4882Y-3.5906
X6.4882Y-3.6906
X6.5803Y-4.2362
T5
X5.1181Y-3.3465
X5.1181Y-4.9213
X6.6929Y-3.3465
X6.6929Y-4.9213
T6
X5.Y-4.235
X5.Y-4.7023
T0
M30
