G04 #@! TF.FileFunction,Copper,L1,Top,Signal*
%FSLAX46Y46*%
G04 Gerber Fmt 4.6, Leading zero omitted, Abs format (unit mm)*
G04 Created by KiCad (PCBNEW 4.0.0-stable) date 2015 December 06, Sunday 20:59:24*
%MOMM*%
G01*
G04 APERTURE LIST*
%ADD10C,0.100000*%
%ADD11R,1.250000X1.500000*%
%ADD12R,1.500000X1.250000*%
%ADD13R,1.143000X0.508000*%
%ADD14C,3.649980*%
%ADD15R,1.501140X1.501140*%
%ADD16C,1.501140*%
%ADD17R,2.032000X2.032000*%
%ADD18O,2.032000X2.032000*%
%ADD19R,2.032000X1.727200*%
%ADD20O,2.032000X1.727200*%
%ADD21R,2.235200X2.235200*%
%ADD22R,1.500000X1.300000*%
%ADD23R,1.500000X0.600000*%
%ADD24R,10.668000X8.890000*%
%ADD25R,1.778000X2.286000*%
%ADD26O,1.501140X2.999740*%
%ADD27R,3.599180X1.600200*%
%ADD28R,2.029460X2.651760*%
%ADD29C,0.600000*%
%ADD30C,0.500000*%
%ADD31C,0.250000*%
%ADD32C,0.254000*%
G04 APERTURE END LIST*
D10*
D11*
X137600000Y-100150000D03*
X137600000Y-102650000D03*
D12*
X143250000Y-116400000D03*
X140750000Y-116400000D03*
D11*
X164200000Y-125250000D03*
X164200000Y-122750000D03*
D13*
X160902000Y-126410000D03*
X160902000Y-125140000D03*
X160902000Y-123870000D03*
X160902000Y-122600000D03*
X160902000Y-121330000D03*
X160902000Y-120060000D03*
X160902000Y-118790000D03*
X154552000Y-118790000D03*
X154552000Y-120060000D03*
X154552000Y-122600000D03*
X154552000Y-123870000D03*
X154552000Y-125140000D03*
X154552000Y-126410000D03*
X154552000Y-121330000D03*
D14*
X127000000Y-119438520D03*
X127000000Y-107569100D03*
D15*
X133350000Y-109055000D03*
D16*
X135890000Y-110325000D03*
X133350000Y-111595000D03*
X135890000Y-112865000D03*
X133350000Y-114135000D03*
X135890000Y-115405000D03*
X133350000Y-116675000D03*
X135890000Y-117945000D03*
D17*
X152000000Y-99200000D03*
D18*
X152000000Y-101740000D03*
D17*
X164600000Y-107600000D03*
D18*
X167140000Y-107600000D03*
D17*
X135500000Y-95000000D03*
D18*
X135500000Y-92460000D03*
D19*
X164600000Y-111600000D03*
D20*
X164600000Y-114140000D03*
X164600000Y-116680000D03*
X164600000Y-119220000D03*
D17*
X164800000Y-91200000D03*
D18*
X164800000Y-93740000D03*
D21*
X135500000Y-123500000D03*
D22*
X162450000Y-128400000D03*
X165150000Y-128400000D03*
D23*
X150050000Y-127845000D03*
X150050000Y-126575000D03*
X150050000Y-125305000D03*
X150050000Y-124035000D03*
X150050000Y-122765000D03*
X150050000Y-121495000D03*
X150050000Y-120225000D03*
X150050000Y-118955000D03*
X140750000Y-118955000D03*
X140750000Y-120225000D03*
X140750000Y-121495000D03*
X140750000Y-122765000D03*
X140750000Y-124035000D03*
X140750000Y-125305000D03*
X140750000Y-126575000D03*
X140750000Y-127845000D03*
D24*
X144000000Y-86037000D03*
D25*
X144000000Y-94800000D03*
X141460000Y-94800000D03*
X146540000Y-94800000D03*
D24*
X157200000Y-86037000D03*
D25*
X157200000Y-94800000D03*
X154660000Y-94800000D03*
X159740000Y-94800000D03*
D26*
X154600000Y-109800000D03*
X152060000Y-109800000D03*
X149520000Y-109800000D03*
X146980000Y-109800000D03*
D27*
X133250820Y-101000000D03*
X127749180Y-101000000D03*
X147750820Y-100500000D03*
X142249180Y-100500000D03*
X172550820Y-100400000D03*
X167049180Y-100400000D03*
X156649180Y-100400000D03*
X162150820Y-100400000D03*
D28*
X165000000Y-86685340D03*
X165000000Y-82514660D03*
X135800000Y-83314660D03*
X135800000Y-87485340D03*
D22*
X158050000Y-106400000D03*
X160750000Y-106400000D03*
X139650000Y-106800000D03*
X142350000Y-106800000D03*
D29*
X142000000Y-126000000D03*
X142000000Y-118500000D03*
X139500000Y-115500000D03*
X141000000Y-92500000D03*
X162392365Y-123317365D03*
X152000000Y-95000000D03*
X164500000Y-98000000D03*
X148799988Y-127274989D03*
X160753458Y-117834142D03*
X138500000Y-121000000D03*
X135000000Y-98500000D03*
X148500000Y-95500000D03*
X158500000Y-108000000D03*
X139500000Y-108500000D03*
X152500000Y-119000000D03*
X156000000Y-121000000D03*
D30*
X144000000Y-94800000D02*
X144000000Y-97748670D01*
X144000000Y-97748670D02*
X146751330Y-100500000D01*
X146751330Y-100500000D02*
X147750820Y-100500000D01*
X144000000Y-86037000D02*
X144000000Y-94800000D01*
X140750000Y-127845000D02*
X142000001Y-127844999D01*
X142000001Y-127844999D02*
X143250000Y-126595000D01*
X143250000Y-126595000D02*
X143250000Y-117525000D01*
X143250000Y-117525000D02*
X143250000Y-116400000D01*
X142350000Y-106800000D02*
X142250000Y-106800000D01*
X142250000Y-106800000D02*
X141099999Y-105649999D01*
X141099999Y-105649999D02*
X138005571Y-105649999D01*
X138005571Y-105649999D02*
X134600570Y-109055000D01*
X134600570Y-109055000D02*
X133350000Y-109055000D01*
X146751330Y-100500000D02*
X145451229Y-101800101D01*
X145451229Y-101800101D02*
X139125101Y-101800101D01*
X139125101Y-101800101D02*
X137600000Y-100275000D01*
X137600000Y-100275000D02*
X137600000Y-100150000D01*
X142350000Y-106800000D02*
X144729300Y-106800000D01*
X144729300Y-106800000D02*
X146980000Y-109050700D01*
X146980000Y-109050700D02*
X146980000Y-109800000D01*
X142350000Y-106800000D02*
X142350000Y-115500000D01*
X142350000Y-115500000D02*
X143250000Y-116400000D01*
X140750000Y-120225000D02*
X142000000Y-120225000D01*
X142000000Y-120225000D02*
X143250000Y-118975000D01*
X143250000Y-118975000D02*
X143250000Y-117525000D01*
X142350000Y-106800000D02*
X142450000Y-106800000D01*
X142450000Y-106800000D02*
X147750820Y-101499180D01*
X147750820Y-101499180D02*
X147750820Y-100500000D01*
X140750000Y-118955000D02*
X141545000Y-118955000D01*
X142000000Y-126000000D02*
X141425000Y-126575000D01*
X141545000Y-118955000D02*
X142000000Y-118500000D01*
X141425000Y-126575000D02*
X140750000Y-126575000D01*
X140750000Y-116400000D02*
X140400000Y-116400000D01*
X140400000Y-116400000D02*
X139500000Y-115500000D01*
X141000000Y-92500000D02*
X141000000Y-94340000D01*
X141000000Y-94340000D02*
X141460000Y-94800000D01*
X133350000Y-114135000D02*
X133350000Y-111595000D01*
D31*
X164200000Y-125125000D02*
X162392365Y-123317365D01*
X162392365Y-123317365D02*
X161675000Y-122600000D01*
X164200000Y-125250000D02*
X164200000Y-125125000D01*
X161675000Y-122600000D02*
X160902000Y-122600000D01*
X165150000Y-128400000D02*
X165150000Y-125325000D01*
X165150000Y-125325000D02*
X165075000Y-125250000D01*
X165075000Y-125250000D02*
X164200000Y-125250000D01*
D30*
X152000000Y-95000000D02*
X154460000Y-95000000D01*
X154460000Y-95000000D02*
X154660000Y-94800000D01*
X167049180Y-100400000D02*
X166900000Y-100400000D01*
X166900000Y-100400000D02*
X164500000Y-98000000D01*
D31*
X149600000Y-118955000D02*
X150050000Y-118955000D01*
X150050000Y-126575000D02*
X154387000Y-126575000D01*
X154387000Y-126575000D02*
X154552000Y-126410000D01*
D30*
X156649180Y-100400000D02*
X153200000Y-100400000D01*
X153200000Y-100400000D02*
X152000000Y-99200000D01*
X160750000Y-106400000D02*
X160750000Y-103501330D01*
X160750000Y-103501330D02*
X157648670Y-100400000D01*
X157648670Y-100400000D02*
X156649180Y-100400000D01*
X157200000Y-94800000D02*
X157200000Y-96443000D01*
X154443000Y-99200000D02*
X153516000Y-99200000D01*
X157200000Y-96443000D02*
X154443000Y-99200000D01*
X153516000Y-99200000D02*
X152000000Y-99200000D01*
X157200000Y-94800000D02*
X157200000Y-99849180D01*
X157200000Y-99849180D02*
X156649180Y-100400000D01*
X157200000Y-94210635D02*
X157200000Y-95054000D01*
X157200000Y-90982000D02*
X157200000Y-86037000D01*
X157200000Y-95054000D02*
X157200000Y-90982000D01*
X157200000Y-95054000D02*
X157200000Y-94800000D01*
X160750000Y-106400000D02*
X163400000Y-106400000D01*
X163400000Y-106400000D02*
X164600000Y-107600000D01*
X150050000Y-127845000D02*
X149369998Y-127845000D01*
X149369998Y-127845000D02*
X148799988Y-127274989D01*
X148799988Y-127274989D02*
X148800000Y-120225000D01*
X148800000Y-120225000D02*
X150050000Y-120225000D01*
X160902000Y-126410000D02*
X160584500Y-126410000D01*
X160584500Y-126410000D02*
X159830499Y-125655999D01*
X159830499Y-125655999D02*
X159830499Y-110853501D01*
X159830499Y-110853501D02*
X163084000Y-107600000D01*
X163084000Y-107600000D02*
X164600000Y-107600000D01*
X160902000Y-126410000D02*
X160902000Y-126852000D01*
X160902000Y-126852000D02*
X162450000Y-128400000D01*
D31*
X162450000Y-128400000D02*
X162350000Y-128400000D01*
D30*
X150050000Y-127845000D02*
X160221000Y-127845000D01*
X160221000Y-127845000D02*
X160902000Y-127164000D01*
X160902000Y-127164000D02*
X160902000Y-126410000D01*
X157200000Y-94800000D02*
X157200000Y-95516000D01*
D31*
X157200000Y-94546000D02*
X157200000Y-94800000D01*
X160902000Y-120060000D02*
X161219500Y-120060000D01*
X161219500Y-120060000D02*
X164599500Y-116680000D01*
X164599500Y-116680000D02*
X164600000Y-116680000D01*
X160902000Y-118790000D02*
X160753458Y-117834142D01*
X160753458Y-117834142D02*
X160902000Y-117685600D01*
X160902000Y-117685600D02*
X164447600Y-114140000D01*
X164447600Y-114140000D02*
X164600000Y-114140000D01*
X150050000Y-122765000D02*
X154387000Y-122765000D01*
X154387000Y-122765000D02*
X154552000Y-122600000D01*
X154552000Y-123870000D02*
X150215000Y-123870000D01*
X150215000Y-123870000D02*
X150050000Y-124035000D01*
X154552000Y-125140000D02*
X150215000Y-125140000D01*
X150215000Y-125140000D02*
X150050000Y-125305000D01*
X154552000Y-121330000D02*
X150215000Y-121330000D01*
X150215000Y-121330000D02*
X150050000Y-121495000D01*
X140750000Y-121495000D02*
X140300000Y-121495000D01*
X140300000Y-121495000D02*
X137865591Y-119060591D01*
X137865591Y-119060591D02*
X137865591Y-112300591D01*
X137865591Y-112300591D02*
X136640569Y-111075569D01*
X136640569Y-111075569D02*
X135890000Y-110325000D01*
X140750000Y-125305000D02*
X140300000Y-125305000D01*
X140300000Y-125305000D02*
X136965571Y-121970571D01*
X136965571Y-121970571D02*
X136965571Y-113940571D01*
X136965571Y-113940571D02*
X136640569Y-113615569D01*
X136640569Y-113615569D02*
X135890000Y-112865000D01*
X140750000Y-124035000D02*
X140300000Y-124035000D01*
X140300000Y-124035000D02*
X137415581Y-121150581D01*
X137415581Y-121150581D02*
X137415581Y-112798735D01*
X134814429Y-114329429D02*
X135139431Y-114654431D01*
X137415581Y-112798735D02*
X136406275Y-111789429D01*
X136406275Y-111789429D02*
X135373725Y-111789429D01*
X135373725Y-111789429D02*
X134814429Y-112348725D01*
X135139431Y-114654431D02*
X135890000Y-115405000D01*
X134814429Y-112348725D02*
X134814429Y-114329429D01*
X140750000Y-122765000D02*
X140300000Y-122765000D01*
X140300000Y-122765000D02*
X138535000Y-121000000D01*
X138535000Y-121000000D02*
X138500000Y-121000000D01*
X135500000Y-123500000D02*
X135500000Y-118335000D01*
X135500000Y-118335000D02*
X135890000Y-117945000D01*
D30*
X152000000Y-101740000D02*
X152000000Y-109740000D01*
X152000000Y-109740000D02*
X152060000Y-109800000D01*
X167140000Y-107600000D02*
X166124001Y-108615999D01*
X166124001Y-108615999D02*
X166124001Y-110228399D01*
X166124001Y-110228399D02*
X164752400Y-111600000D01*
X164752400Y-111600000D02*
X164600000Y-111600000D01*
X135800000Y-87485340D02*
X135800000Y-89311220D01*
X135800000Y-89311220D02*
X133983999Y-91127221D01*
X133983999Y-91127221D02*
X133984000Y-95000000D01*
X133984000Y-95000000D02*
X135500000Y-95000000D01*
X164800000Y-93740000D02*
X165815999Y-92724001D01*
X165815999Y-92724001D02*
X166208001Y-92724001D01*
X166208001Y-92724001D02*
X166316001Y-92616001D01*
X166316001Y-92616001D02*
X166316001Y-89827221D01*
X166316001Y-89827221D02*
X165000000Y-88511220D01*
X165000000Y-88511220D02*
X165000000Y-86685340D01*
X135000000Y-98500000D02*
X137500000Y-96000000D01*
X137500000Y-96000000D02*
X137500000Y-85325810D01*
X137500000Y-85325810D02*
X135800000Y-83625810D01*
X135800000Y-83625810D02*
X135800000Y-83314660D01*
X135000000Y-98500000D02*
X135000000Y-99250820D01*
X135000000Y-99250820D02*
X133250820Y-101000000D01*
X146540000Y-94800000D02*
X147800000Y-94800000D01*
X147800000Y-94800000D02*
X148500000Y-95500000D01*
X159740000Y-94800000D02*
X159740000Y-94546000D01*
X159740000Y-94546000D02*
X163283999Y-91002001D01*
X163283999Y-84541811D02*
X165000000Y-82825810D01*
X165000000Y-82825810D02*
X165000000Y-82514660D01*
X163283999Y-91002001D02*
X163283999Y-84541811D01*
X172550820Y-100400000D02*
X171551330Y-100400000D01*
X171551330Y-100400000D02*
X167594330Y-96443000D01*
X167594330Y-96443000D02*
X162772000Y-96443000D01*
X162772000Y-96443000D02*
X161129000Y-94800000D01*
X161129000Y-94800000D02*
X159740000Y-94800000D01*
D31*
X158050000Y-107550000D02*
X158050000Y-106400000D01*
X158500000Y-108000000D02*
X158050000Y-107550000D01*
X158600000Y-106950000D02*
X158050000Y-106400000D01*
X139650000Y-108350000D02*
X139650000Y-106800000D01*
X139500000Y-108500000D02*
X139650000Y-108350000D01*
X139400000Y-107050000D02*
X139650000Y-106800000D01*
X154552000Y-118790000D02*
X152710000Y-118790000D01*
X152710000Y-118790000D02*
X152500000Y-119000000D01*
X156000000Y-121000000D02*
X155060000Y-120060000D01*
X155060000Y-120060000D02*
X154552000Y-120060000D01*
D32*
G36*
X154246428Y-101435417D02*
X154385500Y-101651541D01*
X154597700Y-101796531D01*
X154849590Y-101847540D01*
X157844630Y-101847540D01*
X159865000Y-103867909D01*
X159865000Y-105127962D01*
X159764683Y-105146838D01*
X159548559Y-105285910D01*
X159403569Y-105498110D01*
X159400919Y-105511197D01*
X159264090Y-105298559D01*
X159051890Y-105153569D01*
X158800000Y-105102560D01*
X157300000Y-105102560D01*
X157064683Y-105146838D01*
X156848559Y-105285910D01*
X156703569Y-105498110D01*
X156652560Y-105750000D01*
X156652560Y-107050000D01*
X156696838Y-107285317D01*
X156835910Y-107501441D01*
X157048110Y-107646431D01*
X157300000Y-107697440D01*
X157319328Y-107697440D01*
X157347852Y-107840839D01*
X157512599Y-108087401D01*
X157564878Y-108139680D01*
X157564838Y-108185167D01*
X157706883Y-108528943D01*
X157969673Y-108792192D01*
X158313201Y-108934838D01*
X158685167Y-108935162D01*
X159028943Y-108793117D01*
X159292192Y-108530327D01*
X159434838Y-108186799D01*
X159435162Y-107814833D01*
X159293117Y-107471057D01*
X159285831Y-107463758D01*
X159396431Y-107301890D01*
X159399081Y-107288803D01*
X159535910Y-107501441D01*
X159748110Y-107646431D01*
X160000000Y-107697440D01*
X161500000Y-107697440D01*
X161735317Y-107653162D01*
X161858570Y-107573851D01*
X159204709Y-110227711D01*
X159012866Y-110514826D01*
X159012866Y-110514827D01*
X158945498Y-110853501D01*
X158945499Y-110853506D01*
X158945499Y-125655994D01*
X158945498Y-125655999D01*
X158997078Y-125915301D01*
X159012866Y-125994674D01*
X159155513Y-126208162D01*
X159204709Y-126281789D01*
X159705343Y-126782422D01*
X159727338Y-126899317D01*
X159766386Y-126960000D01*
X155688212Y-126960000D01*
X155758500Y-126790309D01*
X155758500Y-126695750D01*
X155599750Y-126537000D01*
X154679000Y-126537000D01*
X154679000Y-126557000D01*
X154425000Y-126557000D01*
X154425000Y-126537000D01*
X153504250Y-126537000D01*
X153345500Y-126695750D01*
X153345500Y-126790309D01*
X153415788Y-126960000D01*
X151435000Y-126960000D01*
X151435000Y-126860750D01*
X151276250Y-126702000D01*
X150177000Y-126702000D01*
X150177000Y-126722000D01*
X149923000Y-126722000D01*
X149923000Y-126702000D01*
X149903000Y-126702000D01*
X149903000Y-126448000D01*
X149923000Y-126448000D01*
X149923000Y-126428000D01*
X150177000Y-126428000D01*
X150177000Y-126448000D01*
X151276250Y-126448000D01*
X151435000Y-126289250D01*
X151435000Y-126148690D01*
X151345194Y-125931878D01*
X151366975Y-125900000D01*
X153399220Y-125900000D01*
X153345500Y-126029691D01*
X153345500Y-126124250D01*
X153504250Y-126283000D01*
X154425000Y-126283000D01*
X154425000Y-126263000D01*
X154679000Y-126263000D01*
X154679000Y-126283000D01*
X155599750Y-126283000D01*
X155758500Y-126124250D01*
X155758500Y-126029691D01*
X155661827Y-125796302D01*
X155635291Y-125769765D01*
X155719931Y-125645890D01*
X155770940Y-125394000D01*
X155770940Y-124886000D01*
X155726662Y-124650683D01*
X155632334Y-124504093D01*
X155719931Y-124375890D01*
X155770940Y-124124000D01*
X155770940Y-123616000D01*
X155726662Y-123380683D01*
X155632334Y-123234093D01*
X155719931Y-123105890D01*
X155770940Y-122854000D01*
X155770940Y-122346000D01*
X155726662Y-122110683D01*
X155632334Y-121964093D01*
X155687879Y-121882800D01*
X155813201Y-121934838D01*
X156185167Y-121935162D01*
X156528943Y-121793117D01*
X156792192Y-121530327D01*
X156934838Y-121186799D01*
X156935162Y-120814833D01*
X156793117Y-120471057D01*
X156530327Y-120207808D01*
X156186799Y-120065162D01*
X156139923Y-120065121D01*
X155745477Y-119670675D01*
X155726662Y-119570683D01*
X155632334Y-119424093D01*
X155719931Y-119295890D01*
X155770940Y-119044000D01*
X155770940Y-118536000D01*
X155726662Y-118300683D01*
X155587590Y-118084559D01*
X155375390Y-117939569D01*
X155123500Y-117888560D01*
X153980500Y-117888560D01*
X153745183Y-117932838D01*
X153594189Y-118030000D01*
X152710000Y-118030000D01*
X152533900Y-118065029D01*
X152314833Y-118064838D01*
X151971057Y-118206883D01*
X151707808Y-118469673D01*
X151565162Y-118813201D01*
X151564838Y-119185167D01*
X151706883Y-119528943D01*
X151969673Y-119792192D01*
X152313201Y-119934838D01*
X152685167Y-119935162D01*
X153028943Y-119793117D01*
X153272485Y-119550000D01*
X153386877Y-119550000D01*
X153384069Y-119554110D01*
X153333060Y-119806000D01*
X153333060Y-120314000D01*
X153377338Y-120549317D01*
X153390647Y-120570000D01*
X151438327Y-120570000D01*
X151447440Y-120525000D01*
X151447440Y-119925000D01*
X151403162Y-119689683D01*
X151344822Y-119599020D01*
X151435000Y-119381310D01*
X151435000Y-119240750D01*
X151276250Y-119082000D01*
X150177000Y-119082000D01*
X150177000Y-119102000D01*
X149923000Y-119102000D01*
X149923000Y-119082000D01*
X148823750Y-119082000D01*
X148665000Y-119240750D01*
X148665000Y-119366853D01*
X148461326Y-119407366D01*
X148174211Y-119599209D01*
X148174210Y-119599210D01*
X147982367Y-119886325D01*
X147946794Y-120065162D01*
X147915000Y-120224998D01*
X147914989Y-126968166D01*
X147865150Y-127088190D01*
X147864826Y-127460156D01*
X148006871Y-127803932D01*
X148269661Y-128067181D01*
X148390975Y-128117555D01*
X148744206Y-128470787D01*
X148744208Y-128470790D01*
X148763238Y-128483505D01*
X148835910Y-128596441D01*
X149048110Y-128741431D01*
X149300000Y-128792440D01*
X150800000Y-128792440D01*
X151035317Y-128748162D01*
X151063542Y-128730000D01*
X160220995Y-128730000D01*
X160221000Y-128730001D01*
X160503484Y-128673810D01*
X160559675Y-128662633D01*
X160846790Y-128470790D01*
X161052560Y-128265020D01*
X161052560Y-129050000D01*
X161096838Y-129285317D01*
X161153260Y-129373000D01*
X147127000Y-129373000D01*
X147127000Y-118528690D01*
X148665000Y-118528690D01*
X148665000Y-118669250D01*
X148823750Y-118828000D01*
X149923000Y-118828000D01*
X149923000Y-118178750D01*
X150177000Y-118178750D01*
X150177000Y-118828000D01*
X151276250Y-118828000D01*
X151435000Y-118669250D01*
X151435000Y-118528690D01*
X151338327Y-118295301D01*
X151159698Y-118116673D01*
X150926309Y-118020000D01*
X150335750Y-118020000D01*
X150177000Y-118178750D01*
X149923000Y-118178750D01*
X149764250Y-118020000D01*
X149173691Y-118020000D01*
X148940302Y-118116673D01*
X148761673Y-118295301D01*
X148665000Y-118528690D01*
X147127000Y-118528690D01*
X147127000Y-115627000D01*
X151000000Y-115627000D01*
X151049410Y-115616994D01*
X151091035Y-115588553D01*
X151118315Y-115546159D01*
X151127000Y-115500000D01*
X151127000Y-111602106D01*
X151529765Y-111871225D01*
X152060000Y-111976695D01*
X152590235Y-111871225D01*
X153039746Y-111570871D01*
X153340100Y-111121360D01*
X153342533Y-111109128D01*
X153368501Y-111196867D01*
X153710056Y-111618848D01*
X154187097Y-111878000D01*
X154258725Y-111892183D01*
X154473000Y-111769529D01*
X154473000Y-109927000D01*
X154727000Y-109927000D01*
X154727000Y-111769529D01*
X154941275Y-111892183D01*
X155012903Y-111878000D01*
X155489944Y-111618848D01*
X155831499Y-111196867D01*
X155985570Y-110676300D01*
X155985570Y-109927000D01*
X154727000Y-109927000D01*
X154473000Y-109927000D01*
X154453000Y-109927000D01*
X154453000Y-109673000D01*
X154473000Y-109673000D01*
X154473000Y-107830471D01*
X154727000Y-107830471D01*
X154727000Y-109673000D01*
X155985570Y-109673000D01*
X155985570Y-108923700D01*
X155831499Y-108403133D01*
X155489944Y-107981152D01*
X155012903Y-107722000D01*
X154941275Y-107707817D01*
X154727000Y-107830471D01*
X154473000Y-107830471D01*
X154258725Y-107707817D01*
X154187097Y-107722000D01*
X153710056Y-107981152D01*
X153368501Y-108403133D01*
X153342533Y-108490872D01*
X153340100Y-108478640D01*
X153039746Y-108029129D01*
X152885000Y-107925731D01*
X152885000Y-103117761D01*
X153199778Y-102907433D01*
X153557670Y-102371810D01*
X153683345Y-101740000D01*
X153592840Y-101285000D01*
X154218125Y-101285000D01*
X154246428Y-101435417D01*
X154246428Y-101435417D01*
G37*
X154246428Y-101435417D02*
X154385500Y-101651541D01*
X154597700Y-101796531D01*
X154849590Y-101847540D01*
X157844630Y-101847540D01*
X159865000Y-103867909D01*
X159865000Y-105127962D01*
X159764683Y-105146838D01*
X159548559Y-105285910D01*
X159403569Y-105498110D01*
X159400919Y-105511197D01*
X159264090Y-105298559D01*
X159051890Y-105153569D01*
X158800000Y-105102560D01*
X157300000Y-105102560D01*
X157064683Y-105146838D01*
X156848559Y-105285910D01*
X156703569Y-105498110D01*
X156652560Y-105750000D01*
X156652560Y-107050000D01*
X156696838Y-107285317D01*
X156835910Y-107501441D01*
X157048110Y-107646431D01*
X157300000Y-107697440D01*
X157319328Y-107697440D01*
X157347852Y-107840839D01*
X157512599Y-108087401D01*
X157564878Y-108139680D01*
X157564838Y-108185167D01*
X157706883Y-108528943D01*
X157969673Y-108792192D01*
X158313201Y-108934838D01*
X158685167Y-108935162D01*
X159028943Y-108793117D01*
X159292192Y-108530327D01*
X159434838Y-108186799D01*
X159435162Y-107814833D01*
X159293117Y-107471057D01*
X159285831Y-107463758D01*
X159396431Y-107301890D01*
X159399081Y-107288803D01*
X159535910Y-107501441D01*
X159748110Y-107646431D01*
X160000000Y-107697440D01*
X161500000Y-107697440D01*
X161735317Y-107653162D01*
X161858570Y-107573851D01*
X159204709Y-110227711D01*
X159012866Y-110514826D01*
X159012866Y-110514827D01*
X158945498Y-110853501D01*
X158945499Y-110853506D01*
X158945499Y-125655994D01*
X158945498Y-125655999D01*
X158997078Y-125915301D01*
X159012866Y-125994674D01*
X159155513Y-126208162D01*
X159204709Y-126281789D01*
X159705343Y-126782422D01*
X159727338Y-126899317D01*
X159766386Y-126960000D01*
X155688212Y-126960000D01*
X155758500Y-126790309D01*
X155758500Y-126695750D01*
X155599750Y-126537000D01*
X154679000Y-126537000D01*
X154679000Y-126557000D01*
X154425000Y-126557000D01*
X154425000Y-126537000D01*
X153504250Y-126537000D01*
X153345500Y-126695750D01*
X153345500Y-126790309D01*
X153415788Y-126960000D01*
X151435000Y-126960000D01*
X151435000Y-126860750D01*
X151276250Y-126702000D01*
X150177000Y-126702000D01*
X150177000Y-126722000D01*
X149923000Y-126722000D01*
X149923000Y-126702000D01*
X149903000Y-126702000D01*
X149903000Y-126448000D01*
X149923000Y-126448000D01*
X149923000Y-126428000D01*
X150177000Y-126428000D01*
X150177000Y-126448000D01*
X151276250Y-126448000D01*
X151435000Y-126289250D01*
X151435000Y-126148690D01*
X151345194Y-125931878D01*
X151366975Y-125900000D01*
X153399220Y-125900000D01*
X153345500Y-126029691D01*
X153345500Y-126124250D01*
X153504250Y-126283000D01*
X154425000Y-126283000D01*
X154425000Y-126263000D01*
X154679000Y-126263000D01*
X154679000Y-126283000D01*
X155599750Y-126283000D01*
X155758500Y-126124250D01*
X155758500Y-126029691D01*
X155661827Y-125796302D01*
X155635291Y-125769765D01*
X155719931Y-125645890D01*
X155770940Y-125394000D01*
X155770940Y-124886000D01*
X155726662Y-124650683D01*
X155632334Y-124504093D01*
X155719931Y-124375890D01*
X155770940Y-124124000D01*
X155770940Y-123616000D01*
X155726662Y-123380683D01*
X155632334Y-123234093D01*
X155719931Y-123105890D01*
X155770940Y-122854000D01*
X155770940Y-122346000D01*
X155726662Y-122110683D01*
X155632334Y-121964093D01*
X155687879Y-121882800D01*
X155813201Y-121934838D01*
X156185167Y-121935162D01*
X156528943Y-121793117D01*
X156792192Y-121530327D01*
X156934838Y-121186799D01*
X156935162Y-120814833D01*
X156793117Y-120471057D01*
X156530327Y-120207808D01*
X156186799Y-120065162D01*
X156139923Y-120065121D01*
X155745477Y-119670675D01*
X155726662Y-119570683D01*
X155632334Y-119424093D01*
X155719931Y-119295890D01*
X155770940Y-119044000D01*
X155770940Y-118536000D01*
X155726662Y-118300683D01*
X155587590Y-118084559D01*
X155375390Y-117939569D01*
X155123500Y-117888560D01*
X153980500Y-117888560D01*
X153745183Y-117932838D01*
X153594189Y-118030000D01*
X152710000Y-118030000D01*
X152533900Y-118065029D01*
X152314833Y-118064838D01*
X151971057Y-118206883D01*
X151707808Y-118469673D01*
X151565162Y-118813201D01*
X151564838Y-119185167D01*
X151706883Y-119528943D01*
X151969673Y-119792192D01*
X152313201Y-119934838D01*
X152685167Y-119935162D01*
X153028943Y-119793117D01*
X153272485Y-119550000D01*
X153386877Y-119550000D01*
X153384069Y-119554110D01*
X153333060Y-119806000D01*
X153333060Y-120314000D01*
X153377338Y-120549317D01*
X153390647Y-120570000D01*
X151438327Y-120570000D01*
X151447440Y-120525000D01*
X151447440Y-119925000D01*
X151403162Y-119689683D01*
X151344822Y-119599020D01*
X151435000Y-119381310D01*
X151435000Y-119240750D01*
X151276250Y-119082000D01*
X150177000Y-119082000D01*
X150177000Y-119102000D01*
X149923000Y-119102000D01*
X149923000Y-119082000D01*
X148823750Y-119082000D01*
X148665000Y-119240750D01*
X148665000Y-119366853D01*
X148461326Y-119407366D01*
X148174211Y-119599209D01*
X148174210Y-119599210D01*
X147982367Y-119886325D01*
X147946794Y-120065162D01*
X147915000Y-120224998D01*
X147914989Y-126968166D01*
X147865150Y-127088190D01*
X147864826Y-127460156D01*
X148006871Y-127803932D01*
X148269661Y-128067181D01*
X148390975Y-128117555D01*
X148744206Y-128470787D01*
X148744208Y-128470790D01*
X148763238Y-128483505D01*
X148835910Y-128596441D01*
X149048110Y-128741431D01*
X149300000Y-128792440D01*
X150800000Y-128792440D01*
X151035317Y-128748162D01*
X151063542Y-128730000D01*
X160220995Y-128730000D01*
X160221000Y-128730001D01*
X160503484Y-128673810D01*
X160559675Y-128662633D01*
X160846790Y-128470790D01*
X161052560Y-128265020D01*
X161052560Y-129050000D01*
X161096838Y-129285317D01*
X161153260Y-129373000D01*
X147127000Y-129373000D01*
X147127000Y-118528690D01*
X148665000Y-118528690D01*
X148665000Y-118669250D01*
X148823750Y-118828000D01*
X149923000Y-118828000D01*
X149923000Y-118178750D01*
X150177000Y-118178750D01*
X150177000Y-118828000D01*
X151276250Y-118828000D01*
X151435000Y-118669250D01*
X151435000Y-118528690D01*
X151338327Y-118295301D01*
X151159698Y-118116673D01*
X150926309Y-118020000D01*
X150335750Y-118020000D01*
X150177000Y-118178750D01*
X149923000Y-118178750D01*
X149764250Y-118020000D01*
X149173691Y-118020000D01*
X148940302Y-118116673D01*
X148761673Y-118295301D01*
X148665000Y-118528690D01*
X147127000Y-118528690D01*
X147127000Y-115627000D01*
X151000000Y-115627000D01*
X151049410Y-115616994D01*
X151091035Y-115588553D01*
X151118315Y-115546159D01*
X151127000Y-115500000D01*
X151127000Y-111602106D01*
X151529765Y-111871225D01*
X152060000Y-111976695D01*
X152590235Y-111871225D01*
X153039746Y-111570871D01*
X153340100Y-111121360D01*
X153342533Y-111109128D01*
X153368501Y-111196867D01*
X153710056Y-111618848D01*
X154187097Y-111878000D01*
X154258725Y-111892183D01*
X154473000Y-111769529D01*
X154473000Y-109927000D01*
X154727000Y-109927000D01*
X154727000Y-111769529D01*
X154941275Y-111892183D01*
X155012903Y-111878000D01*
X155489944Y-111618848D01*
X155831499Y-111196867D01*
X155985570Y-110676300D01*
X155985570Y-109927000D01*
X154727000Y-109927000D01*
X154473000Y-109927000D01*
X154453000Y-109927000D01*
X154453000Y-109673000D01*
X154473000Y-109673000D01*
X154473000Y-107830471D01*
X154727000Y-107830471D01*
X154727000Y-109673000D01*
X155985570Y-109673000D01*
X155985570Y-108923700D01*
X155831499Y-108403133D01*
X155489944Y-107981152D01*
X155012903Y-107722000D01*
X154941275Y-107707817D01*
X154727000Y-107830471D01*
X154473000Y-107830471D01*
X154258725Y-107707817D01*
X154187097Y-107722000D01*
X153710056Y-107981152D01*
X153368501Y-108403133D01*
X153342533Y-108490872D01*
X153340100Y-108478640D01*
X153039746Y-108029129D01*
X152885000Y-107925731D01*
X152885000Y-103117761D01*
X153199778Y-102907433D01*
X153557670Y-102371810D01*
X153683345Y-101740000D01*
X153592840Y-101285000D01*
X154218125Y-101285000D01*
X154246428Y-101435417D01*
G36*
X162146208Y-97068787D02*
X162146210Y-97068790D01*
X162433325Y-97260633D01*
X162489516Y-97271810D01*
X162772000Y-97328001D01*
X162772005Y-97328000D01*
X167227750Y-97328000D01*
X168864650Y-98964900D01*
X167334930Y-98964900D01*
X167176180Y-99123650D01*
X167176180Y-100273000D01*
X169325020Y-100273000D01*
X169483770Y-100114250D01*
X169483770Y-99584019D01*
X170103790Y-100204039D01*
X170103790Y-101200100D01*
X170148068Y-101435417D01*
X170287140Y-101651541D01*
X170499340Y-101796531D01*
X170751230Y-101847540D01*
X174350410Y-101847540D01*
X174373000Y-101843289D01*
X174373000Y-120873000D01*
X166500000Y-120873000D01*
X166450590Y-120883006D01*
X166408965Y-120911447D01*
X166381685Y-120953841D01*
X166373000Y-121000000D01*
X166373000Y-127312406D01*
X166364090Y-127298559D01*
X166151890Y-127153569D01*
X165910000Y-127104585D01*
X165910000Y-125325000D01*
X165852148Y-125034161D01*
X165687401Y-124787599D01*
X165612401Y-124712599D01*
X165472440Y-124619080D01*
X165472440Y-124500000D01*
X165428162Y-124264683D01*
X165289090Y-124048559D01*
X165220994Y-124002031D01*
X165363327Y-123859698D01*
X165460000Y-123626309D01*
X165460000Y-123035750D01*
X165301250Y-122877000D01*
X164327000Y-122877000D01*
X164327000Y-122897000D01*
X164073000Y-122897000D01*
X164073000Y-122877000D01*
X164053000Y-122877000D01*
X164053000Y-122623000D01*
X164073000Y-122623000D01*
X164073000Y-121523750D01*
X164327000Y-121523750D01*
X164327000Y-122623000D01*
X165301250Y-122623000D01*
X165460000Y-122464250D01*
X165460000Y-121873691D01*
X165363327Y-121640302D01*
X165184699Y-121461673D01*
X164951310Y-121365000D01*
X164485750Y-121365000D01*
X164327000Y-121523750D01*
X164073000Y-121523750D01*
X163914250Y-121365000D01*
X163448690Y-121365000D01*
X163215301Y-121461673D01*
X163036673Y-121640302D01*
X162940000Y-121873691D01*
X162940000Y-122464250D01*
X163098748Y-122622998D01*
X163020346Y-122622998D01*
X162922692Y-122525173D01*
X162579164Y-122382527D01*
X162532288Y-122382486D01*
X162212401Y-122062599D01*
X162008237Y-121926182D01*
X162069931Y-121835890D01*
X162120940Y-121584000D01*
X162120940Y-121076000D01*
X162076662Y-120840683D01*
X161982334Y-120694093D01*
X162069931Y-120565890D01*
X162120940Y-120314000D01*
X162120940Y-120233362D01*
X163007300Y-119347002D01*
X163113782Y-119347002D01*
X162992642Y-119579026D01*
X162995291Y-119594791D01*
X163249268Y-120122036D01*
X163685680Y-120511954D01*
X164238087Y-120705184D01*
X164473000Y-120560924D01*
X164473000Y-119347000D01*
X164727000Y-119347000D01*
X164727000Y-120560924D01*
X164961913Y-120705184D01*
X165514320Y-120511954D01*
X165950732Y-120122036D01*
X166204709Y-119594791D01*
X166207358Y-119579026D01*
X166086217Y-119347000D01*
X164727000Y-119347000D01*
X164473000Y-119347000D01*
X164453000Y-119347000D01*
X164453000Y-119093000D01*
X164473000Y-119093000D01*
X164473000Y-119073000D01*
X164727000Y-119073000D01*
X164727000Y-119093000D01*
X166086217Y-119093000D01*
X166207358Y-118860974D01*
X166204709Y-118845209D01*
X165950732Y-118317964D01*
X165534931Y-117946461D01*
X165844415Y-117739670D01*
X166169271Y-117253489D01*
X166283345Y-116680000D01*
X166169271Y-116106511D01*
X165844415Y-115620330D01*
X165529634Y-115410000D01*
X165844415Y-115199670D01*
X166169271Y-114713489D01*
X166283345Y-114140000D01*
X166169271Y-113566511D01*
X165844415Y-113080330D01*
X165830087Y-113070757D01*
X165851317Y-113066762D01*
X166067441Y-112927690D01*
X166212431Y-112715490D01*
X166263440Y-112463600D01*
X166263440Y-111340539D01*
X166749788Y-110854191D01*
X166749791Y-110854189D01*
X166941634Y-110567074D01*
X166952811Y-110510883D01*
X167009002Y-110228399D01*
X167009001Y-110228394D01*
X167009001Y-109257288D01*
X167140000Y-109283345D01*
X167771810Y-109157670D01*
X168307433Y-108799778D01*
X168665325Y-108264155D01*
X168791000Y-107632345D01*
X168791000Y-107567655D01*
X168665325Y-106935845D01*
X168307433Y-106400222D01*
X167771810Y-106042330D01*
X167140000Y-105916655D01*
X166508190Y-106042330D01*
X166168208Y-106269499D01*
X166080090Y-106132559D01*
X165867890Y-105987569D01*
X165616000Y-105936560D01*
X164188140Y-105936560D01*
X164025790Y-105774210D01*
X163989557Y-105750000D01*
X163738675Y-105582367D01*
X163682484Y-105571190D01*
X163400000Y-105514999D01*
X163399995Y-105515000D01*
X162103222Y-105515000D01*
X162103162Y-105514683D01*
X161964090Y-105298559D01*
X161751890Y-105153569D01*
X161635000Y-105129898D01*
X161635000Y-103501335D01*
X161635001Y-103501330D01*
X161567633Y-103162656D01*
X161567633Y-103162655D01*
X161375790Y-102875540D01*
X161375787Y-102875538D01*
X160335349Y-101835100D01*
X161865070Y-101835100D01*
X162023820Y-101676350D01*
X162023820Y-100527000D01*
X162277820Y-100527000D01*
X162277820Y-101676350D01*
X162436570Y-101835100D01*
X164076719Y-101835100D01*
X164310108Y-101738427D01*
X164488737Y-101559799D01*
X164585410Y-101326410D01*
X164585410Y-100685750D01*
X164614590Y-100685750D01*
X164614590Y-101326410D01*
X164711263Y-101559799D01*
X164889892Y-101738427D01*
X165123281Y-101835100D01*
X166763430Y-101835100D01*
X166922180Y-101676350D01*
X166922180Y-100527000D01*
X167176180Y-100527000D01*
X167176180Y-101676350D01*
X167334930Y-101835100D01*
X168975079Y-101835100D01*
X169208468Y-101738427D01*
X169387097Y-101559799D01*
X169483770Y-101326410D01*
X169483770Y-100685750D01*
X169325020Y-100527000D01*
X167176180Y-100527000D01*
X166922180Y-100527000D01*
X164773340Y-100527000D01*
X164614590Y-100685750D01*
X164585410Y-100685750D01*
X164426660Y-100527000D01*
X162277820Y-100527000D01*
X162023820Y-100527000D01*
X159874980Y-100527000D01*
X159716230Y-100685750D01*
X159716230Y-101215980D01*
X159096210Y-100595960D01*
X159096210Y-99599900D01*
X159072444Y-99473590D01*
X159716230Y-99473590D01*
X159716230Y-100114250D01*
X159874980Y-100273000D01*
X162023820Y-100273000D01*
X162023820Y-99123650D01*
X162277820Y-99123650D01*
X162277820Y-100273000D01*
X164426660Y-100273000D01*
X164585410Y-100114250D01*
X164585410Y-99473590D01*
X164614590Y-99473590D01*
X164614590Y-100114250D01*
X164773340Y-100273000D01*
X166922180Y-100273000D01*
X166922180Y-99123650D01*
X166763430Y-98964900D01*
X165123281Y-98964900D01*
X164889892Y-99061573D01*
X164711263Y-99240201D01*
X164614590Y-99473590D01*
X164585410Y-99473590D01*
X164488737Y-99240201D01*
X164310108Y-99061573D01*
X164076719Y-98964900D01*
X162436570Y-98964900D01*
X162277820Y-99123650D01*
X162023820Y-99123650D01*
X161865070Y-98964900D01*
X160224921Y-98964900D01*
X159991532Y-99061573D01*
X159812903Y-99240201D01*
X159716230Y-99473590D01*
X159072444Y-99473590D01*
X159051932Y-99364583D01*
X158912860Y-99148459D01*
X158700660Y-99003469D01*
X158448770Y-98952460D01*
X158085000Y-98952460D01*
X158085000Y-96590440D01*
X158089000Y-96590440D01*
X158324317Y-96546162D01*
X158470907Y-96451834D01*
X158599110Y-96539431D01*
X158851000Y-96590440D01*
X160629000Y-96590440D01*
X160864317Y-96546162D01*
X161080441Y-96407090D01*
X161225431Y-96194890D01*
X161233326Y-96155905D01*
X162146208Y-97068787D01*
X162146208Y-97068787D01*
G37*
X162146208Y-97068787D02*
X162146210Y-97068790D01*
X162433325Y-97260633D01*
X162489516Y-97271810D01*
X162772000Y-97328001D01*
X162772005Y-97328000D01*
X167227750Y-97328000D01*
X168864650Y-98964900D01*
X167334930Y-98964900D01*
X167176180Y-99123650D01*
X167176180Y-100273000D01*
X169325020Y-100273000D01*
X169483770Y-100114250D01*
X169483770Y-99584019D01*
X170103790Y-100204039D01*
X170103790Y-101200100D01*
X170148068Y-101435417D01*
X170287140Y-101651541D01*
X170499340Y-101796531D01*
X170751230Y-101847540D01*
X174350410Y-101847540D01*
X174373000Y-101843289D01*
X174373000Y-120873000D01*
X166500000Y-120873000D01*
X166450590Y-120883006D01*
X166408965Y-120911447D01*
X166381685Y-120953841D01*
X166373000Y-121000000D01*
X166373000Y-127312406D01*
X166364090Y-127298559D01*
X166151890Y-127153569D01*
X165910000Y-127104585D01*
X165910000Y-125325000D01*
X165852148Y-125034161D01*
X165687401Y-124787599D01*
X165612401Y-124712599D01*
X165472440Y-124619080D01*
X165472440Y-124500000D01*
X165428162Y-124264683D01*
X165289090Y-124048559D01*
X165220994Y-124002031D01*
X165363327Y-123859698D01*
X165460000Y-123626309D01*
X165460000Y-123035750D01*
X165301250Y-122877000D01*
X164327000Y-122877000D01*
X164327000Y-122897000D01*
X164073000Y-122897000D01*
X164073000Y-122877000D01*
X164053000Y-122877000D01*
X164053000Y-122623000D01*
X164073000Y-122623000D01*
X164073000Y-121523750D01*
X164327000Y-121523750D01*
X164327000Y-122623000D01*
X165301250Y-122623000D01*
X165460000Y-122464250D01*
X165460000Y-121873691D01*
X165363327Y-121640302D01*
X165184699Y-121461673D01*
X164951310Y-121365000D01*
X164485750Y-121365000D01*
X164327000Y-121523750D01*
X164073000Y-121523750D01*
X163914250Y-121365000D01*
X163448690Y-121365000D01*
X163215301Y-121461673D01*
X163036673Y-121640302D01*
X162940000Y-121873691D01*
X162940000Y-122464250D01*
X163098748Y-122622998D01*
X163020346Y-122622998D01*
X162922692Y-122525173D01*
X162579164Y-122382527D01*
X162532288Y-122382486D01*
X162212401Y-122062599D01*
X162008237Y-121926182D01*
X162069931Y-121835890D01*
X162120940Y-121584000D01*
X162120940Y-121076000D01*
X162076662Y-120840683D01*
X161982334Y-120694093D01*
X162069931Y-120565890D01*
X162120940Y-120314000D01*
X162120940Y-120233362D01*
X163007300Y-119347002D01*
X163113782Y-119347002D01*
X162992642Y-119579026D01*
X162995291Y-119594791D01*
X163249268Y-120122036D01*
X163685680Y-120511954D01*
X164238087Y-120705184D01*
X164473000Y-120560924D01*
X164473000Y-119347000D01*
X164727000Y-119347000D01*
X164727000Y-120560924D01*
X164961913Y-120705184D01*
X165514320Y-120511954D01*
X165950732Y-120122036D01*
X166204709Y-119594791D01*
X166207358Y-119579026D01*
X166086217Y-119347000D01*
X164727000Y-119347000D01*
X164473000Y-119347000D01*
X164453000Y-119347000D01*
X164453000Y-119093000D01*
X164473000Y-119093000D01*
X164473000Y-119073000D01*
X164727000Y-119073000D01*
X164727000Y-119093000D01*
X166086217Y-119093000D01*
X166207358Y-118860974D01*
X166204709Y-118845209D01*
X165950732Y-118317964D01*
X165534931Y-117946461D01*
X165844415Y-117739670D01*
X166169271Y-117253489D01*
X166283345Y-116680000D01*
X166169271Y-116106511D01*
X165844415Y-115620330D01*
X165529634Y-115410000D01*
X165844415Y-115199670D01*
X166169271Y-114713489D01*
X166283345Y-114140000D01*
X166169271Y-113566511D01*
X165844415Y-113080330D01*
X165830087Y-113070757D01*
X165851317Y-113066762D01*
X166067441Y-112927690D01*
X166212431Y-112715490D01*
X166263440Y-112463600D01*
X166263440Y-111340539D01*
X166749788Y-110854191D01*
X166749791Y-110854189D01*
X166941634Y-110567074D01*
X166952811Y-110510883D01*
X167009002Y-110228399D01*
X167009001Y-110228394D01*
X167009001Y-109257288D01*
X167140000Y-109283345D01*
X167771810Y-109157670D01*
X168307433Y-108799778D01*
X168665325Y-108264155D01*
X168791000Y-107632345D01*
X168791000Y-107567655D01*
X168665325Y-106935845D01*
X168307433Y-106400222D01*
X167771810Y-106042330D01*
X167140000Y-105916655D01*
X166508190Y-106042330D01*
X166168208Y-106269499D01*
X166080090Y-106132559D01*
X165867890Y-105987569D01*
X165616000Y-105936560D01*
X164188140Y-105936560D01*
X164025790Y-105774210D01*
X163989557Y-105750000D01*
X163738675Y-105582367D01*
X163682484Y-105571190D01*
X163400000Y-105514999D01*
X163399995Y-105515000D01*
X162103222Y-105515000D01*
X162103162Y-105514683D01*
X161964090Y-105298559D01*
X161751890Y-105153569D01*
X161635000Y-105129898D01*
X161635000Y-103501335D01*
X161635001Y-103501330D01*
X161567633Y-103162656D01*
X161567633Y-103162655D01*
X161375790Y-102875540D01*
X161375787Y-102875538D01*
X160335349Y-101835100D01*
X161865070Y-101835100D01*
X162023820Y-101676350D01*
X162023820Y-100527000D01*
X162277820Y-100527000D01*
X162277820Y-101676350D01*
X162436570Y-101835100D01*
X164076719Y-101835100D01*
X164310108Y-101738427D01*
X164488737Y-101559799D01*
X164585410Y-101326410D01*
X164585410Y-100685750D01*
X164614590Y-100685750D01*
X164614590Y-101326410D01*
X164711263Y-101559799D01*
X164889892Y-101738427D01*
X165123281Y-101835100D01*
X166763430Y-101835100D01*
X166922180Y-101676350D01*
X166922180Y-100527000D01*
X167176180Y-100527000D01*
X167176180Y-101676350D01*
X167334930Y-101835100D01*
X168975079Y-101835100D01*
X169208468Y-101738427D01*
X169387097Y-101559799D01*
X169483770Y-101326410D01*
X169483770Y-100685750D01*
X169325020Y-100527000D01*
X167176180Y-100527000D01*
X166922180Y-100527000D01*
X164773340Y-100527000D01*
X164614590Y-100685750D01*
X164585410Y-100685750D01*
X164426660Y-100527000D01*
X162277820Y-100527000D01*
X162023820Y-100527000D01*
X159874980Y-100527000D01*
X159716230Y-100685750D01*
X159716230Y-101215980D01*
X159096210Y-100595960D01*
X159096210Y-99599900D01*
X159072444Y-99473590D01*
X159716230Y-99473590D01*
X159716230Y-100114250D01*
X159874980Y-100273000D01*
X162023820Y-100273000D01*
X162023820Y-99123650D01*
X162277820Y-99123650D01*
X162277820Y-100273000D01*
X164426660Y-100273000D01*
X164585410Y-100114250D01*
X164585410Y-99473590D01*
X164614590Y-99473590D01*
X164614590Y-100114250D01*
X164773340Y-100273000D01*
X166922180Y-100273000D01*
X166922180Y-99123650D01*
X166763430Y-98964900D01*
X165123281Y-98964900D01*
X164889892Y-99061573D01*
X164711263Y-99240201D01*
X164614590Y-99473590D01*
X164585410Y-99473590D01*
X164488737Y-99240201D01*
X164310108Y-99061573D01*
X164076719Y-98964900D01*
X162436570Y-98964900D01*
X162277820Y-99123650D01*
X162023820Y-99123650D01*
X161865070Y-98964900D01*
X160224921Y-98964900D01*
X159991532Y-99061573D01*
X159812903Y-99240201D01*
X159716230Y-99473590D01*
X159072444Y-99473590D01*
X159051932Y-99364583D01*
X158912860Y-99148459D01*
X158700660Y-99003469D01*
X158448770Y-98952460D01*
X158085000Y-98952460D01*
X158085000Y-96590440D01*
X158089000Y-96590440D01*
X158324317Y-96546162D01*
X158470907Y-96451834D01*
X158599110Y-96539431D01*
X158851000Y-96590440D01*
X160629000Y-96590440D01*
X160864317Y-96546162D01*
X161080441Y-96407090D01*
X161225431Y-96194890D01*
X161233326Y-96155905D01*
X162146208Y-97068787D01*
G36*
X163533829Y-80724690D02*
X163388839Y-80936890D01*
X163337830Y-81188780D01*
X163337830Y-83236400D01*
X163181440Y-83392790D01*
X163181440Y-81592000D01*
X163137162Y-81356683D01*
X162998090Y-81140559D01*
X162785890Y-80995569D01*
X162534000Y-80944560D01*
X151866000Y-80944560D01*
X151630683Y-80988838D01*
X151414559Y-81127910D01*
X151269569Y-81340110D01*
X151218560Y-81592000D01*
X151218560Y-90482000D01*
X151262838Y-90717317D01*
X151401910Y-90933441D01*
X151614110Y-91078431D01*
X151866000Y-91129440D01*
X156315000Y-91129440D01*
X156315000Y-93009560D01*
X156311000Y-93009560D01*
X156075683Y-93053838D01*
X155934629Y-93144604D01*
X155908698Y-93118673D01*
X155675309Y-93022000D01*
X154945750Y-93022000D01*
X154787000Y-93180750D01*
X154787000Y-94673000D01*
X154807000Y-94673000D01*
X154807000Y-94927000D01*
X154787000Y-94927000D01*
X154787000Y-96419250D01*
X154945750Y-96578000D01*
X155675309Y-96578000D01*
X155908698Y-96481327D01*
X155935235Y-96454791D01*
X155936064Y-96455357D01*
X154076420Y-98315000D01*
X153663440Y-98315000D01*
X153663440Y-98184000D01*
X153619162Y-97948683D01*
X153480090Y-97732559D01*
X153267890Y-97587569D01*
X153016000Y-97536560D01*
X150984000Y-97536560D01*
X150748683Y-97580838D01*
X150627000Y-97659139D01*
X150627000Y-95085750D01*
X153136000Y-95085750D01*
X153136000Y-96069310D01*
X153232673Y-96302699D01*
X153411302Y-96481327D01*
X153644691Y-96578000D01*
X154374250Y-96578000D01*
X154533000Y-96419250D01*
X154533000Y-94927000D01*
X153294750Y-94927000D01*
X153136000Y-95085750D01*
X150627000Y-95085750D01*
X150627000Y-93530690D01*
X153136000Y-93530690D01*
X153136000Y-94514250D01*
X153294750Y-94673000D01*
X154533000Y-94673000D01*
X154533000Y-93180750D01*
X154374250Y-93022000D01*
X153644691Y-93022000D01*
X153411302Y-93118673D01*
X153232673Y-93297301D01*
X153136000Y-93530690D01*
X150627000Y-93530690D01*
X150627000Y-80627000D01*
X163685644Y-80627000D01*
X163533829Y-80724690D01*
X163533829Y-80724690D01*
G37*
X163533829Y-80724690D02*
X163388839Y-80936890D01*
X163337830Y-81188780D01*
X163337830Y-83236400D01*
X163181440Y-83392790D01*
X163181440Y-81592000D01*
X163137162Y-81356683D01*
X162998090Y-81140559D01*
X162785890Y-80995569D01*
X162534000Y-80944560D01*
X151866000Y-80944560D01*
X151630683Y-80988838D01*
X151414559Y-81127910D01*
X151269569Y-81340110D01*
X151218560Y-81592000D01*
X151218560Y-90482000D01*
X151262838Y-90717317D01*
X151401910Y-90933441D01*
X151614110Y-91078431D01*
X151866000Y-91129440D01*
X156315000Y-91129440D01*
X156315000Y-93009560D01*
X156311000Y-93009560D01*
X156075683Y-93053838D01*
X155934629Y-93144604D01*
X155908698Y-93118673D01*
X155675309Y-93022000D01*
X154945750Y-93022000D01*
X154787000Y-93180750D01*
X154787000Y-94673000D01*
X154807000Y-94673000D01*
X154807000Y-94927000D01*
X154787000Y-94927000D01*
X154787000Y-96419250D01*
X154945750Y-96578000D01*
X155675309Y-96578000D01*
X155908698Y-96481327D01*
X155935235Y-96454791D01*
X155936064Y-96455357D01*
X154076420Y-98315000D01*
X153663440Y-98315000D01*
X153663440Y-98184000D01*
X153619162Y-97948683D01*
X153480090Y-97732559D01*
X153267890Y-97587569D01*
X153016000Y-97536560D01*
X150984000Y-97536560D01*
X150748683Y-97580838D01*
X150627000Y-97659139D01*
X150627000Y-95085750D01*
X153136000Y-95085750D01*
X153136000Y-96069310D01*
X153232673Y-96302699D01*
X153411302Y-96481327D01*
X153644691Y-96578000D01*
X154374250Y-96578000D01*
X154533000Y-96419250D01*
X154533000Y-94927000D01*
X153294750Y-94927000D01*
X153136000Y-95085750D01*
X150627000Y-95085750D01*
X150627000Y-93530690D01*
X153136000Y-93530690D01*
X153136000Y-94514250D01*
X153294750Y-94673000D01*
X154533000Y-94673000D01*
X154533000Y-93180750D01*
X154374250Y-93022000D01*
X153644691Y-93022000D01*
X153411302Y-93118673D01*
X153232673Y-93297301D01*
X153136000Y-93530690D01*
X150627000Y-93530690D01*
X150627000Y-80627000D01*
X163685644Y-80627000D01*
X163533829Y-80724690D01*
G36*
X164927000Y-91073000D02*
X164947000Y-91073000D01*
X164947000Y-91327000D01*
X164927000Y-91327000D01*
X164927000Y-91347000D01*
X164673000Y-91347000D01*
X164673000Y-91327000D01*
X164653000Y-91327000D01*
X164653000Y-91073000D01*
X164673000Y-91073000D01*
X164673000Y-91053000D01*
X164927000Y-91053000D01*
X164927000Y-91073000D01*
X164927000Y-91073000D01*
G37*
X164927000Y-91073000D02*
X164947000Y-91073000D01*
X164947000Y-91327000D01*
X164927000Y-91327000D01*
X164927000Y-91347000D01*
X164673000Y-91347000D01*
X164673000Y-91327000D01*
X164653000Y-91327000D01*
X164653000Y-91073000D01*
X164673000Y-91073000D01*
X164673000Y-91053000D01*
X164927000Y-91053000D01*
X164927000Y-91073000D01*
G36*
X144373000Y-129373000D02*
X134127000Y-129373000D01*
X134127000Y-125211633D01*
X134130510Y-125214031D01*
X134382400Y-125265040D01*
X136617600Y-125265040D01*
X136852917Y-125220762D01*
X137069041Y-125081690D01*
X137214031Y-124869490D01*
X137265040Y-124617600D01*
X137265040Y-123344842D01*
X139352560Y-125432362D01*
X139352560Y-125605000D01*
X139396838Y-125840317D01*
X139455178Y-125930980D01*
X139365000Y-126148690D01*
X139365000Y-126289250D01*
X139523750Y-126448000D01*
X140623000Y-126448000D01*
X140623000Y-126428000D01*
X140877000Y-126428000D01*
X140877000Y-126448000D01*
X140897000Y-126448000D01*
X140897000Y-126702000D01*
X140877000Y-126702000D01*
X140877000Y-126722000D01*
X140623000Y-126722000D01*
X140623000Y-126702000D01*
X139523750Y-126702000D01*
X139365000Y-126860750D01*
X139365000Y-127001310D01*
X139454806Y-127218122D01*
X139403569Y-127293110D01*
X139352560Y-127545000D01*
X139352560Y-128145000D01*
X139396838Y-128380317D01*
X139535910Y-128596441D01*
X139748110Y-128741431D01*
X140000000Y-128792440D01*
X141500000Y-128792440D01*
X141735317Y-128748162D01*
X141763543Y-128729999D01*
X141999996Y-128729999D01*
X142000001Y-128730000D01*
X142226295Y-128684986D01*
X142338677Y-128662632D01*
X142625788Y-128470791D01*
X142625791Y-128470789D01*
X143875787Y-127220792D01*
X143875790Y-127220790D01*
X144022441Y-127001310D01*
X144067634Y-126933674D01*
X144135001Y-126595000D01*
X144135000Y-126594995D01*
X144135000Y-118975005D01*
X144135001Y-118975000D01*
X144135000Y-118974995D01*
X144135000Y-117647038D01*
X144235317Y-117628162D01*
X144373000Y-117539565D01*
X144373000Y-129373000D01*
X144373000Y-129373000D01*
G37*
X144373000Y-129373000D02*
X134127000Y-129373000D01*
X134127000Y-125211633D01*
X134130510Y-125214031D01*
X134382400Y-125265040D01*
X136617600Y-125265040D01*
X136852917Y-125220762D01*
X137069041Y-125081690D01*
X137214031Y-124869490D01*
X137265040Y-124617600D01*
X137265040Y-123344842D01*
X139352560Y-125432362D01*
X139352560Y-125605000D01*
X139396838Y-125840317D01*
X139455178Y-125930980D01*
X139365000Y-126148690D01*
X139365000Y-126289250D01*
X139523750Y-126448000D01*
X140623000Y-126448000D01*
X140623000Y-126428000D01*
X140877000Y-126428000D01*
X140877000Y-126448000D01*
X140897000Y-126448000D01*
X140897000Y-126702000D01*
X140877000Y-126702000D01*
X140877000Y-126722000D01*
X140623000Y-126722000D01*
X140623000Y-126702000D01*
X139523750Y-126702000D01*
X139365000Y-126860750D01*
X139365000Y-127001310D01*
X139454806Y-127218122D01*
X139403569Y-127293110D01*
X139352560Y-127545000D01*
X139352560Y-128145000D01*
X139396838Y-128380317D01*
X139535910Y-128596441D01*
X139748110Y-128741431D01*
X140000000Y-128792440D01*
X141500000Y-128792440D01*
X141735317Y-128748162D01*
X141763543Y-128729999D01*
X141999996Y-128729999D01*
X142000001Y-128730000D01*
X142226295Y-128684986D01*
X142338677Y-128662632D01*
X142625788Y-128470791D01*
X142625791Y-128470789D01*
X143875787Y-127220792D01*
X143875790Y-127220790D01*
X144022441Y-127001310D01*
X144067634Y-126933674D01*
X144135001Y-126595000D01*
X144135000Y-126594995D01*
X144135000Y-118975005D01*
X144135001Y-118975000D01*
X144135000Y-118974995D01*
X144135000Y-117647038D01*
X144235317Y-117628162D01*
X144373000Y-117539565D01*
X144373000Y-129373000D01*
G36*
X148373000Y-80944560D02*
X138666000Y-80944560D01*
X138430683Y-80988838D01*
X138214559Y-81127910D01*
X138069569Y-81340110D01*
X138018560Y-81592000D01*
X138018560Y-84592791D01*
X137462170Y-84036401D01*
X137462170Y-81988780D01*
X137417892Y-81753463D01*
X137278820Y-81537339D01*
X137066620Y-81392349D01*
X136814730Y-81341340D01*
X134785270Y-81341340D01*
X134549953Y-81385618D01*
X134333829Y-81524690D01*
X134188839Y-81736890D01*
X134137830Y-81988780D01*
X134137830Y-84640540D01*
X134182108Y-84875857D01*
X134321180Y-85091981D01*
X134533380Y-85236971D01*
X134785270Y-85287980D01*
X136210591Y-85287980D01*
X136434631Y-85512020D01*
X134785270Y-85512020D01*
X134549953Y-85556298D01*
X134333829Y-85695370D01*
X134188839Y-85907570D01*
X134137830Y-86159460D01*
X134137830Y-88811220D01*
X134182108Y-89046537D01*
X134321180Y-89262661D01*
X134485027Y-89374613D01*
X133358209Y-90501431D01*
X133166366Y-90788546D01*
X133166366Y-90788547D01*
X133098998Y-91127221D01*
X133098999Y-91127226D01*
X133099000Y-95000000D01*
X133166367Y-95338675D01*
X133358210Y-95625790D01*
X133645325Y-95817633D01*
X133836560Y-95855672D01*
X133836560Y-96016000D01*
X133880838Y-96251317D01*
X134019910Y-96467441D01*
X134232110Y-96612431D01*
X134484000Y-96663440D01*
X135584980Y-96663440D01*
X134591164Y-97657256D01*
X134471057Y-97706883D01*
X134207808Y-97969673D01*
X134065162Y-98313201D01*
X134064838Y-98685167D01*
X134115000Y-98806569D01*
X134115000Y-98884241D01*
X133446780Y-99552460D01*
X131451230Y-99552460D01*
X131215913Y-99596738D01*
X130999789Y-99735810D01*
X130854799Y-99948010D01*
X130803790Y-100199900D01*
X130803790Y-101800100D01*
X130848068Y-102035417D01*
X130987140Y-102251541D01*
X131199340Y-102396531D01*
X131451230Y-102447540D01*
X135050410Y-102447540D01*
X135285727Y-102403262D01*
X135501851Y-102264190D01*
X135646841Y-102051990D01*
X135697850Y-101800100D01*
X135697850Y-100199900D01*
X135653572Y-99964583D01*
X135608249Y-99894150D01*
X135625787Y-99876612D01*
X135625790Y-99876610D01*
X135817633Y-99589495D01*
X135843915Y-99457367D01*
X135885001Y-99250820D01*
X135885000Y-99250815D01*
X135885000Y-98866580D01*
X138125787Y-96625792D01*
X138125790Y-96625790D01*
X138317633Y-96338675D01*
X138346234Y-96194890D01*
X138385001Y-96000000D01*
X138385000Y-95999995D01*
X138385000Y-95085750D01*
X139936000Y-95085750D01*
X139936000Y-96069310D01*
X140032673Y-96302699D01*
X140211302Y-96481327D01*
X140444691Y-96578000D01*
X141174250Y-96578000D01*
X141333000Y-96419250D01*
X141333000Y-94927000D01*
X140094750Y-94927000D01*
X139936000Y-95085750D01*
X138385000Y-95085750D01*
X138385000Y-93530690D01*
X139936000Y-93530690D01*
X139936000Y-94514250D01*
X140094750Y-94673000D01*
X141333000Y-94673000D01*
X141333000Y-93180750D01*
X141174250Y-93022000D01*
X140444691Y-93022000D01*
X140211302Y-93118673D01*
X140032673Y-93297301D01*
X139936000Y-93530690D01*
X138385000Y-93530690D01*
X138385000Y-91058541D01*
X138414110Y-91078431D01*
X138666000Y-91129440D01*
X143115000Y-91129440D01*
X143115000Y-93009560D01*
X143111000Y-93009560D01*
X142875683Y-93053838D01*
X142734629Y-93144604D01*
X142708698Y-93118673D01*
X142475309Y-93022000D01*
X141745750Y-93022000D01*
X141587000Y-93180750D01*
X141587000Y-94673000D01*
X141607000Y-94673000D01*
X141607000Y-94927000D01*
X141587000Y-94927000D01*
X141587000Y-96419250D01*
X141745750Y-96578000D01*
X142475309Y-96578000D01*
X142708698Y-96481327D01*
X142735235Y-96454791D01*
X142859110Y-96539431D01*
X143111000Y-96590440D01*
X143115000Y-96590440D01*
X143115000Y-97748665D01*
X143114999Y-97748670D01*
X143154785Y-97948683D01*
X143182367Y-98087345D01*
X143333278Y-98313201D01*
X143374210Y-98374460D01*
X144064650Y-99064900D01*
X142534930Y-99064900D01*
X142376180Y-99223650D01*
X142376180Y-100373000D01*
X144525020Y-100373000D01*
X144683770Y-100214250D01*
X144683770Y-99684020D01*
X145303790Y-100304039D01*
X145303790Y-100695960D01*
X145084649Y-100915101D01*
X144683770Y-100915101D01*
X144683770Y-100785750D01*
X144525020Y-100627000D01*
X142376180Y-100627000D01*
X142376180Y-100647000D01*
X142122180Y-100647000D01*
X142122180Y-100627000D01*
X139973340Y-100627000D01*
X139814590Y-100785750D01*
X139814590Y-100915101D01*
X139491680Y-100915101D01*
X138872440Y-100295860D01*
X138872440Y-99573590D01*
X139814590Y-99573590D01*
X139814590Y-100214250D01*
X139973340Y-100373000D01*
X142122180Y-100373000D01*
X142122180Y-99223650D01*
X141963430Y-99064900D01*
X140323281Y-99064900D01*
X140089892Y-99161573D01*
X139911263Y-99340201D01*
X139814590Y-99573590D01*
X138872440Y-99573590D01*
X138872440Y-99400000D01*
X138828162Y-99164683D01*
X138689090Y-98948559D01*
X138476890Y-98803569D01*
X138225000Y-98752560D01*
X136975000Y-98752560D01*
X136739683Y-98796838D01*
X136523559Y-98935910D01*
X136378569Y-99148110D01*
X136327560Y-99400000D01*
X136327560Y-100900000D01*
X136371838Y-101135317D01*
X136510910Y-101351441D01*
X136579006Y-101397969D01*
X136436673Y-101540302D01*
X136340000Y-101773691D01*
X136340000Y-102364250D01*
X136498750Y-102523000D01*
X137473000Y-102523000D01*
X137473000Y-102503000D01*
X137727000Y-102503000D01*
X137727000Y-102523000D01*
X138644646Y-102523000D01*
X138786427Y-102617735D01*
X139125101Y-102685102D01*
X139125106Y-102685101D01*
X145313320Y-102685101D01*
X142495860Y-105502560D01*
X142204140Y-105502560D01*
X141725789Y-105024209D01*
X141438674Y-104832366D01*
X141382483Y-104821189D01*
X141099999Y-104764998D01*
X141099994Y-104764999D01*
X138005576Y-104764999D01*
X138005571Y-104764998D01*
X137666897Y-104832365D01*
X137666895Y-104832366D01*
X137666896Y-104832366D01*
X137379781Y-105024209D01*
X137379779Y-105024212D01*
X134556546Y-107847445D01*
X134352460Y-107707999D01*
X134100570Y-107656990D01*
X132599430Y-107656990D01*
X132364113Y-107701268D01*
X132147989Y-107840340D01*
X132002999Y-108052540D01*
X131951990Y-108304430D01*
X131951990Y-109805570D01*
X131996268Y-110040887D01*
X132135340Y-110257011D01*
X132347540Y-110402001D01*
X132599430Y-110453010D01*
X132605701Y-110453010D01*
X132557675Y-110623070D01*
X133350000Y-111415395D01*
X134142325Y-110623070D01*
X134094299Y-110453010D01*
X134100570Y-110453010D01*
X134335887Y-110408732D01*
X134504451Y-110300264D01*
X134504190Y-110599398D01*
X134714686Y-111108837D01*
X134849103Y-111243489D01*
X134836324Y-111252028D01*
X134725561Y-111362791D01*
X134719805Y-111249462D01*
X134562931Y-110870735D01*
X134321930Y-110802675D01*
X133529605Y-111595000D01*
X133543748Y-111609143D01*
X133364143Y-111788748D01*
X133350000Y-111774605D01*
X132557675Y-112566930D01*
X132625735Y-112807931D01*
X132773938Y-112860681D01*
X132625735Y-112922069D01*
X132557675Y-113163070D01*
X133350000Y-113955395D01*
X133364143Y-113941253D01*
X133543748Y-114120858D01*
X133529605Y-114135000D01*
X134321930Y-114927325D01*
X134334089Y-114923891D01*
X134514562Y-115104364D01*
X134504671Y-115128184D01*
X134504190Y-115679398D01*
X134714686Y-116188837D01*
X135104113Y-116578944D01*
X135335381Y-116674975D01*
X135106163Y-116769686D01*
X134716056Y-117159113D01*
X134504671Y-117668184D01*
X134504190Y-118219398D01*
X134714686Y-118728837D01*
X134740000Y-118754195D01*
X134740000Y-121734960D01*
X134382400Y-121734960D01*
X134147083Y-121779238D01*
X134127000Y-121792161D01*
X134127000Y-121500000D01*
X134116994Y-121450590D01*
X134088553Y-121408965D01*
X134046159Y-121381685D01*
X134000000Y-121373000D01*
X128544132Y-121373000D01*
X129084262Y-120833812D01*
X129459562Y-119929989D01*
X129460416Y-118951345D01*
X129086694Y-118046868D01*
X128395292Y-117354258D01*
X127491469Y-116978958D01*
X126512825Y-116978104D01*
X125627000Y-117344119D01*
X125627000Y-116949398D01*
X131964190Y-116949398D01*
X132174686Y-117458837D01*
X132564113Y-117848944D01*
X133073184Y-118060329D01*
X133624398Y-118060810D01*
X134133837Y-117850314D01*
X134523944Y-117460887D01*
X134735329Y-116951816D01*
X134735810Y-116400602D01*
X134525314Y-115891163D01*
X134135887Y-115501056D01*
X133920504Y-115411621D01*
X134074265Y-115347931D01*
X134142325Y-115106930D01*
X133350000Y-114314605D01*
X132557675Y-115106930D01*
X132625735Y-115347931D01*
X132791040Y-115406769D01*
X132566163Y-115499686D01*
X132176056Y-115889113D01*
X131964671Y-116398184D01*
X131964190Y-116949398D01*
X125627000Y-116949398D01*
X125627000Y-113930034D01*
X131952233Y-113930034D01*
X131980195Y-114480538D01*
X132137069Y-114859265D01*
X132378070Y-114927325D01*
X133170395Y-114135000D01*
X132378070Y-113342675D01*
X132137069Y-113410735D01*
X131952233Y-113930034D01*
X125627000Y-113930034D01*
X125627000Y-111390034D01*
X131952233Y-111390034D01*
X131980195Y-111940538D01*
X132137069Y-112319265D01*
X132378070Y-112387325D01*
X133170395Y-111595000D01*
X132378070Y-110802675D01*
X132137069Y-110870735D01*
X131952233Y-111390034D01*
X125627000Y-111390034D01*
X125627000Y-109662618D01*
X126508531Y-110028662D01*
X127487175Y-110029516D01*
X128391652Y-109655794D01*
X129084262Y-108964392D01*
X129459562Y-108060569D01*
X129460416Y-107081925D01*
X129086694Y-106177448D01*
X128395292Y-105484838D01*
X127491469Y-105109538D01*
X126512825Y-105108684D01*
X125627000Y-105474699D01*
X125627000Y-102935750D01*
X136340000Y-102935750D01*
X136340000Y-103526309D01*
X136436673Y-103759698D01*
X136615301Y-103938327D01*
X136848690Y-104035000D01*
X137314250Y-104035000D01*
X137473000Y-103876250D01*
X137473000Y-102777000D01*
X137727000Y-102777000D01*
X137727000Y-103876250D01*
X137885750Y-104035000D01*
X138351310Y-104035000D01*
X138584699Y-103938327D01*
X138763327Y-103759698D01*
X138860000Y-103526309D01*
X138860000Y-102935750D01*
X138701250Y-102777000D01*
X137727000Y-102777000D01*
X137473000Y-102777000D01*
X136498750Y-102777000D01*
X136340000Y-102935750D01*
X125627000Y-102935750D01*
X125627000Y-102353798D01*
X125823281Y-102435100D01*
X127463430Y-102435100D01*
X127622180Y-102276350D01*
X127622180Y-101127000D01*
X127876180Y-101127000D01*
X127876180Y-102276350D01*
X128034930Y-102435100D01*
X129675079Y-102435100D01*
X129908468Y-102338427D01*
X130087097Y-102159799D01*
X130183770Y-101926410D01*
X130183770Y-101285750D01*
X130025020Y-101127000D01*
X127876180Y-101127000D01*
X127622180Y-101127000D01*
X127602180Y-101127000D01*
X127602180Y-100873000D01*
X127622180Y-100873000D01*
X127622180Y-99723650D01*
X127876180Y-99723650D01*
X127876180Y-100873000D01*
X130025020Y-100873000D01*
X130183770Y-100714250D01*
X130183770Y-100073590D01*
X130087097Y-99840201D01*
X129908468Y-99661573D01*
X129675079Y-99564900D01*
X128034930Y-99564900D01*
X127876180Y-99723650D01*
X127622180Y-99723650D01*
X127463430Y-99564900D01*
X125823281Y-99564900D01*
X125627000Y-99646202D01*
X125627000Y-89627000D01*
X134000000Y-89627000D01*
X134049410Y-89616994D01*
X134091035Y-89588553D01*
X134118315Y-89546159D01*
X134127000Y-89500000D01*
X134127000Y-80627000D01*
X148373000Y-80627000D01*
X148373000Y-80944560D01*
X148373000Y-80944560D01*
G37*
X148373000Y-80944560D02*
X138666000Y-80944560D01*
X138430683Y-80988838D01*
X138214559Y-81127910D01*
X138069569Y-81340110D01*
X138018560Y-81592000D01*
X138018560Y-84592791D01*
X137462170Y-84036401D01*
X137462170Y-81988780D01*
X137417892Y-81753463D01*
X137278820Y-81537339D01*
X137066620Y-81392349D01*
X136814730Y-81341340D01*
X134785270Y-81341340D01*
X134549953Y-81385618D01*
X134333829Y-81524690D01*
X134188839Y-81736890D01*
X134137830Y-81988780D01*
X134137830Y-84640540D01*
X134182108Y-84875857D01*
X134321180Y-85091981D01*
X134533380Y-85236971D01*
X134785270Y-85287980D01*
X136210591Y-85287980D01*
X136434631Y-85512020D01*
X134785270Y-85512020D01*
X134549953Y-85556298D01*
X134333829Y-85695370D01*
X134188839Y-85907570D01*
X134137830Y-86159460D01*
X134137830Y-88811220D01*
X134182108Y-89046537D01*
X134321180Y-89262661D01*
X134485027Y-89374613D01*
X133358209Y-90501431D01*
X133166366Y-90788546D01*
X133166366Y-90788547D01*
X133098998Y-91127221D01*
X133098999Y-91127226D01*
X133099000Y-95000000D01*
X133166367Y-95338675D01*
X133358210Y-95625790D01*
X133645325Y-95817633D01*
X133836560Y-95855672D01*
X133836560Y-96016000D01*
X133880838Y-96251317D01*
X134019910Y-96467441D01*
X134232110Y-96612431D01*
X134484000Y-96663440D01*
X135584980Y-96663440D01*
X134591164Y-97657256D01*
X134471057Y-97706883D01*
X134207808Y-97969673D01*
X134065162Y-98313201D01*
X134064838Y-98685167D01*
X134115000Y-98806569D01*
X134115000Y-98884241D01*
X133446780Y-99552460D01*
X131451230Y-99552460D01*
X131215913Y-99596738D01*
X130999789Y-99735810D01*
X130854799Y-99948010D01*
X130803790Y-100199900D01*
X130803790Y-101800100D01*
X130848068Y-102035417D01*
X130987140Y-102251541D01*
X131199340Y-102396531D01*
X131451230Y-102447540D01*
X135050410Y-102447540D01*
X135285727Y-102403262D01*
X135501851Y-102264190D01*
X135646841Y-102051990D01*
X135697850Y-101800100D01*
X135697850Y-100199900D01*
X135653572Y-99964583D01*
X135608249Y-99894150D01*
X135625787Y-99876612D01*
X135625790Y-99876610D01*
X135817633Y-99589495D01*
X135843915Y-99457367D01*
X135885001Y-99250820D01*
X135885000Y-99250815D01*
X135885000Y-98866580D01*
X138125787Y-96625792D01*
X138125790Y-96625790D01*
X138317633Y-96338675D01*
X138346234Y-96194890D01*
X138385001Y-96000000D01*
X138385000Y-95999995D01*
X138385000Y-95085750D01*
X139936000Y-95085750D01*
X139936000Y-96069310D01*
X140032673Y-96302699D01*
X140211302Y-96481327D01*
X140444691Y-96578000D01*
X141174250Y-96578000D01*
X141333000Y-96419250D01*
X141333000Y-94927000D01*
X140094750Y-94927000D01*
X139936000Y-95085750D01*
X138385000Y-95085750D01*
X138385000Y-93530690D01*
X139936000Y-93530690D01*
X139936000Y-94514250D01*
X140094750Y-94673000D01*
X141333000Y-94673000D01*
X141333000Y-93180750D01*
X141174250Y-93022000D01*
X140444691Y-93022000D01*
X140211302Y-93118673D01*
X140032673Y-93297301D01*
X139936000Y-93530690D01*
X138385000Y-93530690D01*
X138385000Y-91058541D01*
X138414110Y-91078431D01*
X138666000Y-91129440D01*
X143115000Y-91129440D01*
X143115000Y-93009560D01*
X143111000Y-93009560D01*
X142875683Y-93053838D01*
X142734629Y-93144604D01*
X142708698Y-93118673D01*
X142475309Y-93022000D01*
X141745750Y-93022000D01*
X141587000Y-93180750D01*
X141587000Y-94673000D01*
X141607000Y-94673000D01*
X141607000Y-94927000D01*
X141587000Y-94927000D01*
X141587000Y-96419250D01*
X141745750Y-96578000D01*
X142475309Y-96578000D01*
X142708698Y-96481327D01*
X142735235Y-96454791D01*
X142859110Y-96539431D01*
X143111000Y-96590440D01*
X143115000Y-96590440D01*
X143115000Y-97748665D01*
X143114999Y-97748670D01*
X143154785Y-97948683D01*
X143182367Y-98087345D01*
X143333278Y-98313201D01*
X143374210Y-98374460D01*
X144064650Y-99064900D01*
X142534930Y-99064900D01*
X142376180Y-99223650D01*
X142376180Y-100373000D01*
X144525020Y-100373000D01*
X144683770Y-100214250D01*
X144683770Y-99684020D01*
X145303790Y-100304039D01*
X145303790Y-100695960D01*
X145084649Y-100915101D01*
X144683770Y-100915101D01*
X144683770Y-100785750D01*
X144525020Y-100627000D01*
X142376180Y-100627000D01*
X142376180Y-100647000D01*
X142122180Y-100647000D01*
X142122180Y-100627000D01*
X139973340Y-100627000D01*
X139814590Y-100785750D01*
X139814590Y-100915101D01*
X139491680Y-100915101D01*
X138872440Y-100295860D01*
X138872440Y-99573590D01*
X139814590Y-99573590D01*
X139814590Y-100214250D01*
X139973340Y-100373000D01*
X142122180Y-100373000D01*
X142122180Y-99223650D01*
X141963430Y-99064900D01*
X140323281Y-99064900D01*
X140089892Y-99161573D01*
X139911263Y-99340201D01*
X139814590Y-99573590D01*
X138872440Y-99573590D01*
X138872440Y-99400000D01*
X138828162Y-99164683D01*
X138689090Y-98948559D01*
X138476890Y-98803569D01*
X138225000Y-98752560D01*
X136975000Y-98752560D01*
X136739683Y-98796838D01*
X136523559Y-98935910D01*
X136378569Y-99148110D01*
X136327560Y-99400000D01*
X136327560Y-100900000D01*
X136371838Y-101135317D01*
X136510910Y-101351441D01*
X136579006Y-101397969D01*
X136436673Y-101540302D01*
X136340000Y-101773691D01*
X136340000Y-102364250D01*
X136498750Y-102523000D01*
X137473000Y-102523000D01*
X137473000Y-102503000D01*
X137727000Y-102503000D01*
X137727000Y-102523000D01*
X138644646Y-102523000D01*
X138786427Y-102617735D01*
X139125101Y-102685102D01*
X139125106Y-102685101D01*
X145313320Y-102685101D01*
X142495860Y-105502560D01*
X142204140Y-105502560D01*
X141725789Y-105024209D01*
X141438674Y-104832366D01*
X141382483Y-104821189D01*
X141099999Y-104764998D01*
X141099994Y-104764999D01*
X138005576Y-104764999D01*
X138005571Y-104764998D01*
X137666897Y-104832365D01*
X137666895Y-104832366D01*
X137666896Y-104832366D01*
X137379781Y-105024209D01*
X137379779Y-105024212D01*
X134556546Y-107847445D01*
X134352460Y-107707999D01*
X134100570Y-107656990D01*
X132599430Y-107656990D01*
X132364113Y-107701268D01*
X132147989Y-107840340D01*
X132002999Y-108052540D01*
X131951990Y-108304430D01*
X131951990Y-109805570D01*
X131996268Y-110040887D01*
X132135340Y-110257011D01*
X132347540Y-110402001D01*
X132599430Y-110453010D01*
X132605701Y-110453010D01*
X132557675Y-110623070D01*
X133350000Y-111415395D01*
X134142325Y-110623070D01*
X134094299Y-110453010D01*
X134100570Y-110453010D01*
X134335887Y-110408732D01*
X134504451Y-110300264D01*
X134504190Y-110599398D01*
X134714686Y-111108837D01*
X134849103Y-111243489D01*
X134836324Y-111252028D01*
X134725561Y-111362791D01*
X134719805Y-111249462D01*
X134562931Y-110870735D01*
X134321930Y-110802675D01*
X133529605Y-111595000D01*
X133543748Y-111609143D01*
X133364143Y-111788748D01*
X133350000Y-111774605D01*
X132557675Y-112566930D01*
X132625735Y-112807931D01*
X132773938Y-112860681D01*
X132625735Y-112922069D01*
X132557675Y-113163070D01*
X133350000Y-113955395D01*
X133364143Y-113941253D01*
X133543748Y-114120858D01*
X133529605Y-114135000D01*
X134321930Y-114927325D01*
X134334089Y-114923891D01*
X134514562Y-115104364D01*
X134504671Y-115128184D01*
X134504190Y-115679398D01*
X134714686Y-116188837D01*
X135104113Y-116578944D01*
X135335381Y-116674975D01*
X135106163Y-116769686D01*
X134716056Y-117159113D01*
X134504671Y-117668184D01*
X134504190Y-118219398D01*
X134714686Y-118728837D01*
X134740000Y-118754195D01*
X134740000Y-121734960D01*
X134382400Y-121734960D01*
X134147083Y-121779238D01*
X134127000Y-121792161D01*
X134127000Y-121500000D01*
X134116994Y-121450590D01*
X134088553Y-121408965D01*
X134046159Y-121381685D01*
X134000000Y-121373000D01*
X128544132Y-121373000D01*
X129084262Y-120833812D01*
X129459562Y-119929989D01*
X129460416Y-118951345D01*
X129086694Y-118046868D01*
X128395292Y-117354258D01*
X127491469Y-116978958D01*
X126512825Y-116978104D01*
X125627000Y-117344119D01*
X125627000Y-116949398D01*
X131964190Y-116949398D01*
X132174686Y-117458837D01*
X132564113Y-117848944D01*
X133073184Y-118060329D01*
X133624398Y-118060810D01*
X134133837Y-117850314D01*
X134523944Y-117460887D01*
X134735329Y-116951816D01*
X134735810Y-116400602D01*
X134525314Y-115891163D01*
X134135887Y-115501056D01*
X133920504Y-115411621D01*
X134074265Y-115347931D01*
X134142325Y-115106930D01*
X133350000Y-114314605D01*
X132557675Y-115106930D01*
X132625735Y-115347931D01*
X132791040Y-115406769D01*
X132566163Y-115499686D01*
X132176056Y-115889113D01*
X131964671Y-116398184D01*
X131964190Y-116949398D01*
X125627000Y-116949398D01*
X125627000Y-113930034D01*
X131952233Y-113930034D01*
X131980195Y-114480538D01*
X132137069Y-114859265D01*
X132378070Y-114927325D01*
X133170395Y-114135000D01*
X132378070Y-113342675D01*
X132137069Y-113410735D01*
X131952233Y-113930034D01*
X125627000Y-113930034D01*
X125627000Y-111390034D01*
X131952233Y-111390034D01*
X131980195Y-111940538D01*
X132137069Y-112319265D01*
X132378070Y-112387325D01*
X133170395Y-111595000D01*
X132378070Y-110802675D01*
X132137069Y-110870735D01*
X131952233Y-111390034D01*
X125627000Y-111390034D01*
X125627000Y-109662618D01*
X126508531Y-110028662D01*
X127487175Y-110029516D01*
X128391652Y-109655794D01*
X129084262Y-108964392D01*
X129459562Y-108060569D01*
X129460416Y-107081925D01*
X129086694Y-106177448D01*
X128395292Y-105484838D01*
X127491469Y-105109538D01*
X126512825Y-105108684D01*
X125627000Y-105474699D01*
X125627000Y-102935750D01*
X136340000Y-102935750D01*
X136340000Y-103526309D01*
X136436673Y-103759698D01*
X136615301Y-103938327D01*
X136848690Y-104035000D01*
X137314250Y-104035000D01*
X137473000Y-103876250D01*
X137473000Y-102777000D01*
X137727000Y-102777000D01*
X137727000Y-103876250D01*
X137885750Y-104035000D01*
X138351310Y-104035000D01*
X138584699Y-103938327D01*
X138763327Y-103759698D01*
X138860000Y-103526309D01*
X138860000Y-102935750D01*
X138701250Y-102777000D01*
X137727000Y-102777000D01*
X137473000Y-102777000D01*
X136498750Y-102777000D01*
X136340000Y-102935750D01*
X125627000Y-102935750D01*
X125627000Y-102353798D01*
X125823281Y-102435100D01*
X127463430Y-102435100D01*
X127622180Y-102276350D01*
X127622180Y-101127000D01*
X127876180Y-101127000D01*
X127876180Y-102276350D01*
X128034930Y-102435100D01*
X129675079Y-102435100D01*
X129908468Y-102338427D01*
X130087097Y-102159799D01*
X130183770Y-101926410D01*
X130183770Y-101285750D01*
X130025020Y-101127000D01*
X127876180Y-101127000D01*
X127622180Y-101127000D01*
X127602180Y-101127000D01*
X127602180Y-100873000D01*
X127622180Y-100873000D01*
X127622180Y-99723650D01*
X127876180Y-99723650D01*
X127876180Y-100873000D01*
X130025020Y-100873000D01*
X130183770Y-100714250D01*
X130183770Y-100073590D01*
X130087097Y-99840201D01*
X129908468Y-99661573D01*
X129675079Y-99564900D01*
X128034930Y-99564900D01*
X127876180Y-99723650D01*
X127622180Y-99723650D01*
X127463430Y-99564900D01*
X125823281Y-99564900D01*
X125627000Y-99646202D01*
X125627000Y-89627000D01*
X134000000Y-89627000D01*
X134049410Y-89616994D01*
X134091035Y-89588553D01*
X134118315Y-89546159D01*
X134127000Y-89500000D01*
X134127000Y-80627000D01*
X148373000Y-80627000D01*
X148373000Y-80944560D01*
G36*
X138252560Y-107450000D02*
X138296838Y-107685317D01*
X138435910Y-107901441D01*
X138648110Y-108046431D01*
X138673777Y-108051629D01*
X138565162Y-108313201D01*
X138564838Y-108685167D01*
X138706883Y-109028943D01*
X138969673Y-109292192D01*
X139313201Y-109434838D01*
X139685167Y-109435162D01*
X140028943Y-109293117D01*
X140292192Y-109030327D01*
X140434838Y-108686799D01*
X140435162Y-108314833D01*
X140410000Y-108253936D01*
X140410000Y-108095558D01*
X140635317Y-108053162D01*
X140851441Y-107914090D01*
X140996431Y-107701890D01*
X140999081Y-107688803D01*
X141135910Y-107901441D01*
X141348110Y-108046431D01*
X141465000Y-108070102D01*
X141465000Y-115140000D01*
X141035750Y-115140000D01*
X140877000Y-115298750D01*
X140877000Y-116273000D01*
X140897000Y-116273000D01*
X140897000Y-116527000D01*
X140877000Y-116527000D01*
X140877000Y-117501250D01*
X141035750Y-117660000D01*
X141626309Y-117660000D01*
X141859698Y-117563327D01*
X142000936Y-117422090D01*
X142035910Y-117476441D01*
X142248110Y-117621431D01*
X142365000Y-117645102D01*
X142365000Y-118608421D01*
X142135000Y-118838421D01*
X142135000Y-118827998D01*
X141976252Y-118827998D01*
X142135000Y-118669250D01*
X142135000Y-118528690D01*
X142038327Y-118295301D01*
X141859698Y-118116673D01*
X141626309Y-118020000D01*
X141035750Y-118020000D01*
X140877000Y-118178750D01*
X140877000Y-118828000D01*
X140897000Y-118828000D01*
X140897000Y-119082000D01*
X140877000Y-119082000D01*
X140877000Y-119102000D01*
X140623000Y-119102000D01*
X140623000Y-119082000D01*
X139523750Y-119082000D01*
X139365000Y-119240750D01*
X139365000Y-119381310D01*
X139438460Y-119558658D01*
X138625591Y-118745789D01*
X138625591Y-118528690D01*
X139365000Y-118528690D01*
X139365000Y-118669250D01*
X139523750Y-118828000D01*
X140623000Y-118828000D01*
X140623000Y-118178750D01*
X140464250Y-118020000D01*
X139873691Y-118020000D01*
X139640302Y-118116673D01*
X139461673Y-118295301D01*
X139365000Y-118528690D01*
X138625591Y-118528690D01*
X138625591Y-116685750D01*
X139365000Y-116685750D01*
X139365000Y-117151310D01*
X139461673Y-117384699D01*
X139640302Y-117563327D01*
X139873691Y-117660000D01*
X140464250Y-117660000D01*
X140623000Y-117501250D01*
X140623000Y-116527000D01*
X139523750Y-116527000D01*
X139365000Y-116685750D01*
X138625591Y-116685750D01*
X138625591Y-115648690D01*
X139365000Y-115648690D01*
X139365000Y-116114250D01*
X139523750Y-116273000D01*
X140623000Y-116273000D01*
X140623000Y-115298750D01*
X140464250Y-115140000D01*
X139873691Y-115140000D01*
X139640302Y-115236673D01*
X139461673Y-115415301D01*
X139365000Y-115648690D01*
X138625591Y-115648690D01*
X138625591Y-112300591D01*
X138567739Y-112009752D01*
X138402992Y-111763190D01*
X137265438Y-110625636D01*
X137275329Y-110601816D01*
X137275810Y-110050602D01*
X137065314Y-109541163D01*
X136675887Y-109151056D01*
X136166816Y-108939671D01*
X135967653Y-108939497D01*
X138252560Y-106654589D01*
X138252560Y-107450000D01*
X138252560Y-107450000D01*
G37*
X138252560Y-107450000D02*
X138296838Y-107685317D01*
X138435910Y-107901441D01*
X138648110Y-108046431D01*
X138673777Y-108051629D01*
X138565162Y-108313201D01*
X138564838Y-108685167D01*
X138706883Y-109028943D01*
X138969673Y-109292192D01*
X139313201Y-109434838D01*
X139685167Y-109435162D01*
X140028943Y-109293117D01*
X140292192Y-109030327D01*
X140434838Y-108686799D01*
X140435162Y-108314833D01*
X140410000Y-108253936D01*
X140410000Y-108095558D01*
X140635317Y-108053162D01*
X140851441Y-107914090D01*
X140996431Y-107701890D01*
X140999081Y-107688803D01*
X141135910Y-107901441D01*
X141348110Y-108046431D01*
X141465000Y-108070102D01*
X141465000Y-115140000D01*
X141035750Y-115140000D01*
X140877000Y-115298750D01*
X140877000Y-116273000D01*
X140897000Y-116273000D01*
X140897000Y-116527000D01*
X140877000Y-116527000D01*
X140877000Y-117501250D01*
X141035750Y-117660000D01*
X141626309Y-117660000D01*
X141859698Y-117563327D01*
X142000936Y-117422090D01*
X142035910Y-117476441D01*
X142248110Y-117621431D01*
X142365000Y-117645102D01*
X142365000Y-118608421D01*
X142135000Y-118838421D01*
X142135000Y-118827998D01*
X141976252Y-118827998D01*
X142135000Y-118669250D01*
X142135000Y-118528690D01*
X142038327Y-118295301D01*
X141859698Y-118116673D01*
X141626309Y-118020000D01*
X141035750Y-118020000D01*
X140877000Y-118178750D01*
X140877000Y-118828000D01*
X140897000Y-118828000D01*
X140897000Y-119082000D01*
X140877000Y-119082000D01*
X140877000Y-119102000D01*
X140623000Y-119102000D01*
X140623000Y-119082000D01*
X139523750Y-119082000D01*
X139365000Y-119240750D01*
X139365000Y-119381310D01*
X139438460Y-119558658D01*
X138625591Y-118745789D01*
X138625591Y-118528690D01*
X139365000Y-118528690D01*
X139365000Y-118669250D01*
X139523750Y-118828000D01*
X140623000Y-118828000D01*
X140623000Y-118178750D01*
X140464250Y-118020000D01*
X139873691Y-118020000D01*
X139640302Y-118116673D01*
X139461673Y-118295301D01*
X139365000Y-118528690D01*
X138625591Y-118528690D01*
X138625591Y-116685750D01*
X139365000Y-116685750D01*
X139365000Y-117151310D01*
X139461673Y-117384699D01*
X139640302Y-117563327D01*
X139873691Y-117660000D01*
X140464250Y-117660000D01*
X140623000Y-117501250D01*
X140623000Y-116527000D01*
X139523750Y-116527000D01*
X139365000Y-116685750D01*
X138625591Y-116685750D01*
X138625591Y-115648690D01*
X139365000Y-115648690D01*
X139365000Y-116114250D01*
X139523750Y-116273000D01*
X140623000Y-116273000D01*
X140623000Y-115298750D01*
X140464250Y-115140000D01*
X139873691Y-115140000D01*
X139640302Y-115236673D01*
X139461673Y-115415301D01*
X139365000Y-115648690D01*
X138625591Y-115648690D01*
X138625591Y-112300591D01*
X138567739Y-112009752D01*
X138402992Y-111763190D01*
X137265438Y-110625636D01*
X137275329Y-110601816D01*
X137275810Y-110050602D01*
X137065314Y-109541163D01*
X136675887Y-109151056D01*
X136166816Y-108939671D01*
X135967653Y-108939497D01*
X138252560Y-106654589D01*
X138252560Y-107450000D01*
G36*
X148373000Y-104000000D02*
X148383006Y-104049410D01*
X148411447Y-104091035D01*
X148453841Y-104118315D01*
X148500000Y-104127000D01*
X149873000Y-104127000D01*
X149873000Y-107710139D01*
X149861275Y-107707817D01*
X149647000Y-107830471D01*
X149647000Y-109673000D01*
X149667000Y-109673000D01*
X149667000Y-109927000D01*
X149647000Y-109927000D01*
X149647000Y-111769529D01*
X149861275Y-111892183D01*
X149873000Y-111889861D01*
X149873000Y-112373000D01*
X144500000Y-112373000D01*
X144450590Y-112383006D01*
X144408965Y-112411447D01*
X144381685Y-112453841D01*
X144373000Y-112500000D01*
X144373000Y-115261320D01*
X144251890Y-115178569D01*
X144000000Y-115127560D01*
X143235000Y-115127560D01*
X143235000Y-108072038D01*
X143335317Y-108053162D01*
X143551441Y-107914090D01*
X143696431Y-107701890D01*
X143699851Y-107685000D01*
X144362720Y-107685000D01*
X145609721Y-108932001D01*
X145594430Y-109008875D01*
X145594430Y-110591125D01*
X145699900Y-111121360D01*
X146000254Y-111570871D01*
X146449765Y-111871225D01*
X146980000Y-111976695D01*
X147510235Y-111871225D01*
X147959746Y-111570871D01*
X148260100Y-111121360D01*
X148262533Y-111109128D01*
X148288501Y-111196867D01*
X148630056Y-111618848D01*
X149107097Y-111878000D01*
X149178725Y-111892183D01*
X149393000Y-111769529D01*
X149393000Y-109927000D01*
X149373000Y-109927000D01*
X149373000Y-109673000D01*
X149393000Y-109673000D01*
X149393000Y-107830471D01*
X149178725Y-107707817D01*
X149107097Y-107722000D01*
X148630056Y-107981152D01*
X148288501Y-108403133D01*
X148262533Y-108490872D01*
X148260100Y-108478640D01*
X147959746Y-108029129D01*
X147510235Y-107728775D01*
X146980000Y-107623305D01*
X146833354Y-107652475D01*
X145355090Y-106174210D01*
X145318857Y-106150000D01*
X145067975Y-105982367D01*
X145011784Y-105971190D01*
X144729300Y-105914999D01*
X144729295Y-105915000D01*
X144586580Y-105915000D01*
X148373000Y-102128579D01*
X148373000Y-104000000D01*
X148373000Y-104000000D01*
G37*
X148373000Y-104000000D02*
X148383006Y-104049410D01*
X148411447Y-104091035D01*
X148453841Y-104118315D01*
X148500000Y-104127000D01*
X149873000Y-104127000D01*
X149873000Y-107710139D01*
X149861275Y-107707817D01*
X149647000Y-107830471D01*
X149647000Y-109673000D01*
X149667000Y-109673000D01*
X149667000Y-109927000D01*
X149647000Y-109927000D01*
X149647000Y-111769529D01*
X149861275Y-111892183D01*
X149873000Y-111889861D01*
X149873000Y-112373000D01*
X144500000Y-112373000D01*
X144450590Y-112383006D01*
X144408965Y-112411447D01*
X144381685Y-112453841D01*
X144373000Y-112500000D01*
X144373000Y-115261320D01*
X144251890Y-115178569D01*
X144000000Y-115127560D01*
X143235000Y-115127560D01*
X143235000Y-108072038D01*
X143335317Y-108053162D01*
X143551441Y-107914090D01*
X143696431Y-107701890D01*
X143699851Y-107685000D01*
X144362720Y-107685000D01*
X145609721Y-108932001D01*
X145594430Y-109008875D01*
X145594430Y-110591125D01*
X145699900Y-111121360D01*
X146000254Y-111570871D01*
X146449765Y-111871225D01*
X146980000Y-111976695D01*
X147510235Y-111871225D01*
X147959746Y-111570871D01*
X148260100Y-111121360D01*
X148262533Y-111109128D01*
X148288501Y-111196867D01*
X148630056Y-111618848D01*
X149107097Y-111878000D01*
X149178725Y-111892183D01*
X149393000Y-111769529D01*
X149393000Y-109927000D01*
X149373000Y-109927000D01*
X149373000Y-109673000D01*
X149393000Y-109673000D01*
X149393000Y-107830471D01*
X149178725Y-107707817D01*
X149107097Y-107722000D01*
X148630056Y-107981152D01*
X148288501Y-108403133D01*
X148262533Y-108490872D01*
X148260100Y-108478640D01*
X147959746Y-108029129D01*
X147510235Y-107728775D01*
X146980000Y-107623305D01*
X146833354Y-107652475D01*
X145355090Y-106174210D01*
X145318857Y-106150000D01*
X145067975Y-105982367D01*
X145011784Y-105971190D01*
X144729300Y-105914999D01*
X144729295Y-105915000D01*
X144586580Y-105915000D01*
X148373000Y-102128579D01*
X148373000Y-104000000D01*
G36*
X135627000Y-92333000D02*
X135647000Y-92333000D01*
X135647000Y-92587000D01*
X135627000Y-92587000D01*
X135627000Y-92607000D01*
X135373000Y-92607000D01*
X135373000Y-92587000D01*
X135353000Y-92587000D01*
X135353000Y-92333000D01*
X135373000Y-92333000D01*
X135373000Y-92313000D01*
X135627000Y-92313000D01*
X135627000Y-92333000D01*
X135627000Y-92333000D01*
G37*
X135627000Y-92333000D02*
X135647000Y-92333000D01*
X135647000Y-92587000D01*
X135627000Y-92587000D01*
X135627000Y-92607000D01*
X135373000Y-92607000D01*
X135373000Y-92587000D01*
X135353000Y-92587000D01*
X135353000Y-92333000D01*
X135373000Y-92333000D01*
X135373000Y-92313000D01*
X135627000Y-92313000D01*
X135627000Y-92333000D01*
M02*
